<svg xmlns="http://www.w3.org/2000/svg" width="200" height="200" viewBox="0 0 200 200"><path d="M24.3 74.8A440.1 440.1 0 0 0 81 132.3l7.6 6.3 3.7 2.9c2.1 1.7 4 3.4 6.6 4.1a10.7 10.7 0 0 0 8.4-1.1 17.4 17.4 0 0 0 5-5.1c1.9-2.7 3.6-5.6 5.5-8.3s3.7-5.3 5.7-7.9l1.3-1.8c1-1.3-1.1 1.4-.1.1l.8-1 3.1-3.8c4.2-5.1 8.7-10 13.4-14.8 9.9-9.9 22.5-18.7 28.4-31.8a7.4 7.4 0 0 0-2.7-10.3c-3.2-1.7-8.5-1.1-10.2 2.7a45.2 45.2 0 0 1-4.6 7.6c-.8 1.2 1-1.1.3-.4l-.6.8-1.3 1.6c-1 1.1-2 2.2-3.1 3.2-4.2 4.3-8.7 8.2-13.1 12.3a229.6 229.6 0 0 0-25.9 29.8l-6.1 8.7-3 4.7a5.6 5.6 0 0 0-.5.8l-.5.6.6-.8-.6.6.7-.5-.6.3 1.8-.8-.7.2 2-.2h-1.1l2 .3-.7-.2 1.8.7-1-.5c-1.3-.7 1.2.9.3.3l-1.9-1.5-3.9-3.1-7.3-6.1c-4.9-4.1-9.6-8.4-14.3-12.7-9.5-8.9-18.5-18-27.2-27.6-4.8-5.3-9.5-10.8-14.1-16.4-1.1-1.4-3.6-2.2-5.3-2.2a7.7 7.7 0 0 0-5.3 2.2 7.5 7.5 0 0 0-2.2 5.3 8.7 8.7 0 0 0 2.2 5.3z"/></svg>