<svg xmlns="http://www.w3.org/2000/svg" width="115" height="200" viewBox="0 0 115 200"><path d="M80.6 56.2l6.4-.4 14.5-.8a.6.6 0 0 0 .6-.6c-.1-6.5 3.2-12.4 4-18.9a.5.5 0 0 0-.5-.5l-31.8-5.9a9.2 9.2 0 0 0-.1-1.6c0-.6-1-.8-1.1-.1l-.3 1.5H72l-9.6-1.7c-.1-.1-.3-.1-.3 0l-.3-.5-.5-.5a1.3 1.3 0 0 1-.1-.6.8.8 0 0 0-.6-.4h-.8c-2.1-1-4.6-.7-7-.8l-2.7-.4c-.6-.1-.8 1-.1 1.1a10.9 10.9 0 0 0 2.6.3l6.7.8a1.5 1.5 0 0 1 .9.6c.6 2.2 1.2 4.4 1.9 6.7s.4 2.9.7 4.3a81.6 81.6 0 0 0 3 11.8c.3.8.5 1.7 1.3 2a2.3 2.3 0 0 0 1.1.2l1.4 3.5a1.8 1.8 0 0 0 1.6 1.4l3.1-.2 4.3-.2-.3 1.1-.8 2.8a35.1 35.1 0 0 0-7.9-1.2.8.8 0 0 0-.6.4v.2h-.6c-.4 0-.8.2-.8.6s.7 2.6 1 4h-2.4c-.2-.2 0 0-.1-.2a.4.4 0 0 0-.1-.3 1.1 1.1 0 0 0-1.6-.3 4.7 4.7 0 0 0-2.5 2.3 3.7 3.7 0 0 0-.1 3.4 3.1 3.1 0 0 0 4.4 1.5h.5a2.9 2.9 0 0 0 2.9-2.7 6.4 6.4 0 0 0 .4-2.4h1l3.3.6c1 .1 2.4.7 3.1-.3a9.1 9.1 0 0 0 .7-1.4l.6-1.7 7.7 1.4 2.3.6 3.2.8a11.9 11.9 0 0 1 2.7.7 2.1 2.1 0 0 0-1.1 2.3 1.4 1.4 0 0 0 1.1.9 4.9 4.9 0 0 0 5.6 2.6 2.3 2.3 0 0 0 1.7-2.7 4.5 4.5 0 0 0-1-1.4l-.2-.3a5.8 5.8 0 0 0-1.8-2.5.5.5 0 0 0-.7-.1l-11.5-2.3-7.3-2.1a10.9 10.9 0 0 1 .5-1.7c.2-.9.5-1.8.7-2.7zM71.4 49c.3-3.9.6-7.7 1-11.5-.2 3.8-.5 7.6-1 11.4zm24.3-14.6l9.1 1.6c-.8 6.1-3.8 11.7-3.9 17.9L80.8 55a1.4 1.4 0 0 0-.1-1.1l-.3-.3a1.3 1.3 0 0 0-.7-.8l-1.4-.4-1.7-.4-3.2-.6-1.1-.2a169.7 169.7 0 0 0 1.5-17.5v-3.3zm-23.5-4.3q-1.2 8.4-1.8 16.8l-.3 4-1-.2-.3-.8c-1.4-3.8-2.7-7.5-3.9-11.4-.6-1.7-1.1-3.5-1.7-5.3s-.1-.7-.1-1.1a24.7 24.7 0 0 0-.5-3.8zm-4.7 20.3c-.3-.2-.4-.8-.5-1.1l-.6-1.7-.9-3c-.1-.3-.1-.6-.2-.9.6 1.9 1.3 3.9 2 5.8a3.6 3.6 0 0 1 .4 1.1c-.1-.1-.2-.1-.2-.2zm2.3 2.3a1.9 1.9 0 0 1-.2-.7h.5a.6.6 0 0 0-.1.4.6.6 0 0 0 .5.6h.3c-.1.5-.1 1-.2 1.5l-.2-.5zm3.8 2.7h-2c0-.1.1-.2.1-.3l.3-1.9 4.8.8 1.5.2h.9l-.2.4v.3h-2.3zm-6.2 11.8a5.1 5.1 0 0 1-.9 1.3 1.2 1.2 0 0 1-.9-.5 1.5 1.5 0 0 1 .2-1.8 1.7 1.7 0 0 1 1.9-.2 1.7 1.7 0 0 1-.3 1.2zm3.4-3.1H70c-.1-.2 0-.4-.1-.6s.1-1.6.1-2.4l7 1.2c-.2.6-.3 1.2-.5 1.7a50.6 50.6 0 0 1-5.5.2zm-2 1.3zm-5.1 3.9c-1.6-1.1-1.2-3.2.1-4.3s.3-.3.5-.5l.7-.3a.4.4 0 0 0 .1.3c0 .1.1.1.1.2a3.2 3.2 0 0 0-1.4 1.4 2.9 2.9 0 0 0 .8 3.5 1.6 1.6 0 0 1-.9-.3zm31.6-1.8a1.4 1.4 0 0 1 .2-.7h.1c0 .1.1.2.1.3a1 1 0 0 0-.4.5zm2.6 1.5c-.6.5-1-.3-1.1-.8a.4.4 0 0 1 .1-.3 1.9 1.9 0 0 0 .6.7l.5.3zm1.4-1zm-.2 1.2zm1.5 1a2.4 2.4 0 0 1-2.3.5l-.7-.2a5.4 5.4 0 0 0 2.2-.1 1.4 1.4 0 0 0 1-.8.7.7 0 0 1-.2.6z"/><path fill="none" stroke="#000" stroke-miterlimit="10" d="M44.7 19.2C34.1 29.5 21.5 37.5 8.9 45.4a72.5 72.5 0 0 1 26.2 25.4M25 183.9c23.8-16.5 40.4-36.4 54.7-61.6m10.3 55c-26.3-15.8-36.7-38.3-63.1-54.1"/></svg>