<svg id="Layer_1" data-name="Layer 1" xmlns="http://www.w3.org/2000/svg" width="60" height="120" viewBox="0 0 60 120"><path d="M51.9,68.8A98.3,98.3,0,0,0,35,84.1a188.1,188.1,0,0,0-15.1,19.5c-2.3,3.5-4.5,7-6.6,10.6s2.7,5.3,4.3,2.5a158.8,158.8,0,0,1,27.6-36,85.5,85.5,0,0,1,9.3-7.6,2.4,2.4,0,0,0,.8-3.4,2.5,2.5,0,0,0-3.4-.9Z"/><path d="M3.5,73.5c13.3,7.9,24.4,18.9,36.7,28.2,3.4,2.5,6.9,5,10.6,7.2s5.3-2.7,2.5-4.4C40,96.6,28.8,85.6,16.5,76.3A120.9,120.9,0,0,0,6,69.2C3.2,67.5.7,71.8,3.5,73.5Z"/><path d="M5.5,9.9C22.3,8.7,39.2,8.3,56,8.6c3.2.1,3.2-4.9,0-5-16.8-.3-33.7.1-50.5,1.3A2.5,2.5,0,0,0,3,7.4,2.5,2.5,0,0,0,5.5,9.9Z"/><path d="M8.7,28.6a345,345,0,0,1,43.1-2.5c3.2,0,3.2-5,0-5A345,345,0,0,0,8.7,23.6a2.7,2.7,0,0,0-2.5,2.5c0,1.3,1.2,2.7,2.5,2.5Z"/><path d="M4.2,50.9c16.3-.8,32.6-1.4,48.9-1.7,3.2,0,3.2-5,0-5-16.3.3-32.6.9-48.9,1.7-3.2.2-3.2,5.2,0,5Z"/></svg>