<svg xmlns="http://www.w3.org/2000/svg" width="100" height="200" viewBox="0 0 100 200"><path d="M83.4 119.9c-9.5 6.5-17.8 14.6-25.5 23.2a253.7 253.7 0 0 0-22.5 29.1c-3.5 5.2-6.8 10.4-9.9 15.8-1.6 2.8 2.7 5.3 4.3 2.5a299.4 299.4 0 0 1 18.7-28.2 229.9 229.9 0 0 1 23.6-26.7 116 116 0 0 1 13.8-11.4 2.5 2.5 0 0 0-2.5-4.3z"/><path d="M10.2 124.8c20.2 11.9 37.1 28.7 55.7 42.7a168.5 168.5 0 0 0 15.8 10.7c2.7 1.7 5.2-2.7 2.5-4.3-20.2-12-37.1-28.7-55.7-42.8a167.5 167.5 0 0 0-15.8-10.6c-2.7-1.7-5.2 2.6-2.5 4.3zm4.6-98.3q29.7-2.2 59.5-2.2l16.8.2c3.3.1 3.3-4.9 0-5-19.8-.4-39.7-.1-59.5.9l-16.8 1.1a2.5 2.5 0 1 0 0 5zm4.9 28.2A502.2 502.2 0 0 1 70.2 51l14.6-.2c3.2 0 3.2-5 0-5-16.9 0-33.8.7-50.6 2.3l-14.5 1.6a2.7 2.7 0 0 0-2.5 2.5c0 1.3 1.2 2.7 2.5 2.5zm-6.8 33.7c19.1-1 38.3-1.7 57.5-2.2l16.3-.4c3.3 0 3.3-5 0-5-19.1.4-38.3 1-57.5 1.8l-16.3.8c-3.2.2-3.3 5.2 0 5z"/></svg>