<svg xmlns="http://www.w3.org/2000/svg" width="16" height="16" viewBox="0 0 16 16"><path fill="#e9c266" d="M6.6 8.5c-.2-.3-.7-.3-1.1-.1a4.2 4.2 0 0 0-2.9 4.1.4.4 0 0 0 .1.3c.1.1.3.7.4.7a2 2 0 0 0 1.5-.3 8.3 8.3 0 0 0 1.3-1.4 8.3 8.3 0 0 0 .7-2.7"/><path fill="#010101" d="M6.5 7.6a9.7 9.7 0 0 0-3 2.7 7.6 7.6 0 0 0-.9 1.8 3 3 0 0 0-.2 1c.1.3.5.4.8.5a3.4 3.4 0 0 0 3-2 8.7 8.7 0 0 0 .5-2.2 20.8 20.8 0 0 0 0-2.5c.1-.3 0-.7.3-1h.4a.5.5 0 0 1 .2.4 2.4 2.4 0 0 1-.2.9 1.8 1.8 0 0 1-.6.9l-.3.3h.1a2.5 2.5 0 0 1 .2-1.9l.7-.7h.3c0 .1.1.1.1.2v.5a2.5 2.5 0 0 1-.8 1.8 2.4 2.4 0 0 1-.8.6h-.5c-.2 0-.3-.2-.3-.4v-.6a4.3 4.3 0 0 1 .1-.5 3.7 3.7 0 0 1 .5-1.1 3 3 0 0 1 .8-.8 1.3 1.3 0 0 1 .9-.2c.7.3.5 1.2.4 1.7l-.3.9c-.2.2-.3.4-.6.5s-1.1-.6-1-1.1a3.7 3.7 0 0 1 .5-1.1 2 2 0 0 1 .8-.8H8a2 2 0 0 1-.3 1.5 1.2 1.2 0 0 1-.5.5c-.2 0-.4 0-.5-.2a.2.2 0 0 1 .3-.4v-.2A2.3 2.3 0 0 1 6.2 8h.2a1.4 1.4 0 0 1 .1-1.7h-.2a1 1 0 0 1-.3 1h.1a1.2 1.2 0 0 1 1.1-.8h1l1 .2 2 .5 1.7.4a4.4 4.4 0 0 1 1.5.8 1.5 1.5 0 0 1 .6.5 1.1 1.1 0 0 1 0 .8c-.3.5-1 .5-1.5.5l-1.6-.3a7.1 7.1 0 0 1-2.7-1.6L8.9 8l-.2.2.9.9.4.5.4.5c.1.1.2.3.1.4l-.2.2a.8.8 0 0 1-.7.2l-.8-.4a2.3 2.3 0 0 1-.7-.7 6.4 6.4 0 0 1-.8-1.9c-.3-.7-.5-1.5-.8-2.2A6.6 6.6 0 0 0 5.3 4a6.4 6.4 0 0 0-1.5-1.3l-.9-.6c-.3-.1-.6-.4-1-.2a1.1 1.1 0 0 0-.2.8 3.4 3.4 0 0 0 .1 1 4.5 4.5 0 0 0 1.1 1.7l.3.3h.1c-.5 0-1-.3-1.4-.1s-.7.4-.6.8.5.5.8.6h.8l.9.2 1.9.3c.1 0 .1-.1 0-.2a2.5 2.5 0 0 0-1.9-.1 3.3 3.3 0 0 0-1.3 1.3 4.3 4.3 0 0 0-.2 1.1h.2a1.9 1.9 0 0 1 1-1.7 2.6 2.6 0 0 1 2.1-.2 3.1 3.1 0 0 1 2.3 2.9 2.8 2.8 0 0 1-.7 2.1h.2a4.4 4.4 0 0 0-.2-3.4 4.1 4.1 0 0 0-.5-.9h-.1l-1.8.7c-.1 0-.1.1-.1.2l1.8 1v-.2a3.9 3.9 0 0 1-2.4.1H4c-.3.4.2.8.5.9l.6.3a.3.3 0 0 1 0 .4l-.4.3H4c-.4-.1-.9-.1-1.1.3s-.2.7.2.8V13a4.3 4.3 0 0 0-.9 1c-.1.1.1.2.2.1l.9-.7h-.1a.6.6 0 0 1-.4-.6l.2-.3c.1-.2.2-.2.4-.2l.6.3h.6c.2 0 .3-.2.4-.3a.9.9 0 0 0-.3-.5h-.4l-.2-.2a.9.9 0 0 1-.3-.7H6a.5.5 0 0 0 .2-.4c0-.2-.1-.3-.3-.4s-.3-.2-.4-.3l-.4-.3c0-.1 0-.3.2-.3l.4-.2.5-.3a2.4 2.4 0 0 0 .5-1A8.2 8.2 0 0 0 7.3 5a2.2 2.2 0 0 0-.1-.8c0-.1-.1-.2-.1-.3s-.2-.2-.2-.3 0-.2.1-.3l.3-.3.7-.5c.1 0 .1-.2 0-.2a1.5 1.5 0 0 0-1.1.8 2.9 2.9 0 0 0-.3 1.6c.1.3.1.6.2.9v.2h.6a1.9 1.9 0 0 0 1.5-.2 1.2 1.2 0 0 0 .6-1.3h-.2c.2.2.1.4 0 .6s-.4.3-.6.4-1.2.3-1.7.7-.4 1-.7 1.4-1 .5-1.5.6-1.2.6-1.1 1.2.2.1.2 0a2.9 2.9 0 0 1 2.6-1.1h.1A6 6 0 0 1 8 5.5v-.2a.9.9 0 0 1-.3-.5c.1-.1.2-.2.3-.1.1 0 .1.1 0 .1s-.2 0-.2-.1c0-.2.1-.3.3-.4H8l.3.3-.4.4a.6.6 0 0 0 1-.5.5.5 0 0 0-.5.8h.2v-.2a.3.3 0 0 1 .2-.4h-.1c.1.3-.4.6-.7.4l.5-.5-.3-.3h-.3l-.3.3v.2c0 .1.1.1.1.2s.6 0 .6-.3l-.2-.2a.2.2 0 0 0-.3 0c-.1.2.2.5.4.3a.4.4 0 0 0-.6.1c-.2.2.1.6.2.8v-.4A8.7 8.7 0 0 0 6.4 8h.2a3.4 3.4 0 0 0-2.4.7l-.5.5h.2a.9.9 0 0 1 .3-.7c.2-.2.5-.2.8-.3s1.2-.1 1.5-.7l.3-.7a1.6 1.6 0 0 1 .4-.7l.8-.2a1.5 1.5 0 0 0 .9-.2c.4-.1 1-.8.6-1.3h-.2a1.1 1.1 0 0 1-.6 1.2 2 2 0 0 1-1.7.1c-.2-.9-.4-2.1.4-2.8l.6-.4v-.2l-.6.5L7 3l-.3.2a.7.7 0 0 0 .1.6 1.4 1.4 0 0 1 .2.6A4.6 4.6 0 0 1 6.7 7a5.6 5.6 0 0 1-.4 1.2l-.4.4-.5.2L5 9a.6.6 0 0 0-.1.4c.1.4.5.5.8.6a.9.9 0 0 1 .3.5c0 .2-.4.1-.5.1H3.6a1.2 1.2 0 0 0 .7 1.1h.3l.2.2c0 .2-.3.3-.4.3l-.6-.2h-.7c-.3.1-.4.4-.5.7a.8.8 0 0 0 .6.8v-.2l-.9.7h.2l.8-1h-.2c-.2-.1-.1-.5 0-.6a.4.4 0 0 1 .5-.1h.8a1.1 1.1 0 0 0 .9-.4.4.4 0 0 0 0-.5.3.3 0 0 0-.3-.3l-.6-.3c-.2-.1-.4-.3-.3-.5H4a3.9 3.9 0 0 0 2.6-.1c0-.1 0-.2-.1-.2a5.4 5.4 0 0 1-1.6-1v.2l1.8-.7h-.2a3.8 3.8 0 0 1 .9 3.1 2.9 2.9 0 0 1-.2.9c0 .1.1.2.2.1a3.3 3.3 0 0 0-3.8-5 2.1 2.1 0 0 0-1.3 2h.2A2.3 2.3 0 0 1 3.1 8a2.3 2.3 0 0 1 1.5-.7 1.6 1.6 0 0 1 1 .2v-.2l-3-.5c-.3-.1-.8-.1-1-.4s-.2-.3-.1-.4.2-.3.3-.3 1 .1 1.5.1.2-.2.1-.2A3.1 3.1 0 0 1 2.2 4a1.9 1.9 0 0 1-.3-1c0-.2-.1-.6.1-.8a.2.2 0 0 1 .4-.1l.5.3.9.5 1.5 1.4A6.2 6.2 0 0 1 6.4 6a15.5 15.5 0 0 1 .7 2.3 8.1 8.1 0 0 0 1 1.8l.7.6a2 2 0 0 0 .8.4 1.2 1.2 0 0 0 .8-.2c.2-.1.4-.3.3-.5a.5.5 0 0 0-.2-.4 1 1 0 0 0-.4-.5l-.8-1-.4-.5c-.1-.1-.2.1-.2.2a8.7 8.7 0 0 0 2.8 1.9 5.5 5.5 0 0 0 1.7.5 2.4 2.4 0 0 0 1.7-.4 1 1 0 0 0 .4-.7.9.9 0 0 0-.3-.7 3.6 3.6 0 0 0-1.5-1l-1.7-.5-2.2-.5-1-.2-1-.2a1.4 1.4 0 0 0-1.5.6c-.1.1-.1.2-.2.4h.2a1.2 1.2 0 0 0 .4-1.3c0-.1-.1-.1-.1 0A1.5 1.5 0 0 0 6.2 8h.2a5.1 5.1 0 0 0 .7-1.5c-.3-.2-.5 0-.6.3s.1.5.4.6 1-.6 1.2-1.1a4.9 4.9 0 0 0 .1-1.2.1.1 0 0 1-.1-.1 1.3 1.3 0 0 0-1.1.6l-.4.5-.3.6a1.4 1.4 0 0 0-.2 1.1 1.1 1.1 0 0 0 .7.8 1 1 0 0 0 .9-.2 1.4 1.4 0 0 0 .5-.8 4.5 4.5 0 0 0 .3-1.1 1.8 1.8 0 0 0-.2-1 .9.9 0 0 0-.9-.4 2.9 2.9 0 0 0-1.1.6 4.3 4.3 0 0 0-1 2.3c0 .4 0 .9.4 1a1.4 1.4 0 0 0 1.1-.3 2.9 2.9 0 0 0 1.3-1.8v-.6a1.3 1.3 0 0 0-.1-.6.4.4 0 0 0-.5-.1l-.4.3a2.3 2.3 0 0 0-.8 2 4.3 4.3 0 0 0 .1.5h.2a3.6 3.6 0 0 0 1.1-1.5 1.2 1.2 0 0 0 0-1 .4.4 0 0 0-.7-.2 1 1 0 0 0-.4.9 4.5 4.5 0 0 0-.1 1.1 20.1 20.1 0 0 1-.1 2.5 4.1 4.1 0 0 1-.8 1.9 3.5 3.5 0 0 1-1.5 1.2h-.9l-.5-.2a.7.7 0 0 1-.1-.5l.3-.9.5-.9A7.8 7.8 0 0 1 6.2 8l.4-.2c.1-.1 0-.2-.1-.2z"/></svg>