<svg xmlns="http://www.w3.org/2000/svg" width="256" height="256" viewBox="0 0 256 256"><path fill="#e9c266" d="M113.9 100.4c-2.1-3-6.6-2.6-10.1-1.5-14.9 5.1-25.6 20.7-24.8 36.4a3.6 3.6 0 0 0 .7 2.4c.6.7 2.3 5.9 3.3 6 5.2.5 8.8.2 13-3 2.4-1.9 10.5-9 11.8-11.8 3.9-8.6 4.4-14.3 5.9-23.7"/><path fill="#73471c" d="M147.2 191.1l-10.3.2v-.9c3.9-1.4 6-3.7 6.8-7.6s.9-13.4.9-19.5-.1-11.5-.4-15.6-1.1-6.4-2.9-8.1a10.7 10.7 0 0 0-5.5-2.5v-.9l9.7.2 13-.2c6.8 0 11.9.9 15.6 4a11.1 11.1 0 0 1 4.5 9.4 10.9 10.9 0 0 1-2.9 7.5 19.1 19.1 0 0 1-7.2 5 17.4 17.4 0 0 1 8 3.4 11.9 11.9 0 0 1 4.8 9.8 14.4 14.4 0 0 1-5.6 11.7 23.7 23.7 0 0 1-14.2 4.4zm19.1-29.6c3.4-2.4 4.8-5.9 4.8-10.2a12.6 12.6 0 0 0-6.9-11.4 17.2 17.2 0 0 0-7.4-2l-4.8.5a42.2 42.2 0 0 0-.5 5.6c-.2 3.2-.4 8.3-.4 17.3a44.7 44.7 0 0 0 8.8.7 29.1 29.1 0 0 0 6.4-.5zM170 186a13.2 13.2 0 0 0 3.5-9.5 11.2 11.2 0 0 0-3.9-8.9 15.8 15.8 0 0 0-9.6-3.6c-3.6 0-6.2-.1-8.9-.3v6.7a83.3 83.3 0 0 0 .7 12.2c.6 3.1 1.4 4 2.8 5.1s4.4 1.7 6.8 1.8a14 14 0 0 0 8.6-3.5zm37.9 1.8c4.7 0 8-2.7 10.7-6.1l.9.7c-2.4 3.4-7.2 9.6-14.3 9.6a16 16 0 0 1-8.7-2.4c-4.5-3.1-7.1-8.4-7.1-16 0-9.5 6.3-18.3 15.6-18.3 7.6 0 12.2 6.6 13.4 13.7 0 .4.1.7.1.9s-.1.7-.4.8l-21.3.6v1.5c0 10 4.8 15 11.1 15zm-11.1-18.2a94.5 94.5 0 0 0 14.5-.7c-.4-5.8-2.8-11.8-7.1-12s-6.8 5.7-7.4 12.7zm48.3 18.2c4.6 0 8-2.7 10.7-6.1l.8.7c-2.3 3.4-7.1 9.6-14.3 9.6a15.9 15.9 0 0 1-8.6-2.4c-4.6-3.1-7.2-8.4-7.2-16 0-9.5 6.4-18.3 15.7-18.3 7.6 0 12.2 6.6 13.3 13.7a5.1 5.1 0 0 1 .2.9.9.9 0 0 1-.4.8l-21.4.6v1.5c0 10 4.8 15 11.2 15zM234 169.6a94.5 94.5 0 0 0 14.5-.7c-.4-5.8-2.9-11.8-7.1-12s-6.8 5.7-7.4 12.7z"/><path fill="#ac6c29" d="M3.5 169.2c.5 0 .8.5 1.7 2.9s3.4 9 5.9 15.8c2.2-6.1 4.8-12.5 7-18.7a8.5 8.5 0 0 1 2 .3c.5.2.6.6.3 1.4-2.6 6.7-5.3 13.2-8 19.6a2.3 2.3 0 0 1-.7 1.1 5.4 5.4 0 0 1-2.2.3C6.9 184.8 3.9 177 .8 170a7 7 0 0 1 2.7-.8zm20.2 4.8a44 44 0 0 0-.1-4.5l2.7-.3c.5 0 .5.3.5 1.9v16c0 2.5.1 3.6.1 4.3a10.9 10.9 0 0 1-2.6.3c-.4 0-.6-.1-.6-.7zm13.5-2.5h-6.8c-.5 0-.8-.2-.6-.8l1-1.6c.5.2 1.4.2 5.3.2h12a2.6 2.6 0 0 1-1.3 2.2h-6.5v15.6c0 2.5.1 3.6.1 4.3a11.8 11.8 0 0 1-2.7.3c-.3 0-.5-.1-.5-.6zM52 184.6c-1.2 2.8-2.3 5.5-3 6.7s-.3.4-.7.4a8.5 8.5 0 0 1-2.2-.4v-.2c2-4.3 7.9-17.8 9.1-20.5l-.5-1 2.5-.4c.4 0 .6.3.8.6 1.6 3.7 4.7 11.3 6.1 14.6s2.3 5.5 3 6.8a8.8 8.8 0 0 1-2.7.4c-.4 0-.7-.2-1-1s-1.4-3.3-2.6-6.1zm8.2-2.2l-3.7-9c-1.2 2.8-2.3 5.7-3.7 9zm29.6-12.8a10.1 10.1 0 0 1 2.5-.4c.3 0 .5.2.6.9l2.3 13.2c.6 3.8 1.1 6.4 1.4 8.1a9.9 9.9 0 0 1-2.4.3c-.5 0-.8-.2-.8-.7s-.6-3.6-1.1-6.8l-1.6-10.7c-1.3 3.5-4 10.3-6.4 16.8a1.5 1.5 0 0 1-.9 1l-1.5.2c-1.1-3.4-4.5-12.6-6.4-18-.8 5.2-2.3 14.1-2.9 17.7-.1.4-.2.5-.6.5a5.1 5.1 0 0 1-2.1-.3c.7-3.5 2.4-13 4-20.9l-.3-.9a10.3 10.3 0 0 1 2.7-.4c.5.5.9 1.5 1.9 3.9l5.1 13.4c2.3-5.8 5.1-12.6 6.6-16.3zm11 4.4c0-2.4-.1-3.9-.1-4.5l2.6-.3c.5 0 .6.3.6 1.9v16c0 2.5.1 3.6.1 4.3a11.8 11.8 0 0 1-2.7.3c-.4 0-.5-.1-.5-.7zm7.9-4.4l2.9-.3a1.4 1.4 0 0 1 .9.6c1.2 1.5 4.7 6.6 8.3 11.5a71.7 71.7 0 0 1 4.3 6.4c-.2-3.6-.2-5.7-.2-7.5v-9.8c0-.9.2-1 .7-1l2-.2c-.1 1.5-.2 3.6-.2 6.5v15.7a5.3 5.3 0 0 1-2.2.6c-.2 0-.3-.1-.5-.3-2.4-3.2-5.7-7.8-8.8-12.1-1.3-1.9-2.6-3.9-4-6.2.2 4.3.2 6.1.2 8v9.1c0 .9-.2 1-.7 1.1h-1.9c.1-1.4.1-3.5.1-6.4v-14.4z"/><path fill="#010101" d="M112.6 92.5a73.7 73.7 0 0 0-25.8 23.2 78.1 78.1 0 0 0-7.9 15.5c-1 2.7-2.3 5.8-1.7 8.7s3.9 4 6.7 4.3c11.4 1.2 21.3-7.7 26-17.3 2.9-6 4.1-12.7 4.6-19.3s.2-14.1.4-21.2c0-2.8-.2-6.7 2.2-8.7a3.8 3.8 0 0 1 3.4-.8c1.2.4 1.7 1.8 1.8 3a17.6 17.6 0 0 1-1.7 8.4 25.4 25.4 0 0 1-4.8 7.4 22.2 22.2 0 0 1-3.3 2.8l1.3.5a19.5 19.5 0 0 1 1.9-16.3 17 17 0 0 1 5.8-6.1c.6-.4 1.4-1 2.2-.6a2.7 2.7 0 0 1 1 1.5 12.5 12.5 0 0 1 .3 4.3 23.5 23.5 0 0 1-7 15.8 19.4 19.4 0 0 1-7.2 4.8 6.7 6.7 0 0 1-4.4.4 3.8 3.8 0 0 1-2.4-3.3 14.2 14.2 0 0 1 .1-4.6 27 27 0 0 1 .9-4.8 29.7 29.7 0 0 1 4.2-8.8 24.8 24.8 0 0 1 6.7-7c2.4-1.6 5.6-2.9 8.5-1.8 5.5 2.1 4.2 10.2 3.1 14.7a25.2 25.2 0 0 1-2.8 7.5c-1.1 2-2.8 4-5.1 4.6-5.7 1.8-9.3-5-8.6-9.9s2.4-6.5 4.3-9.3 3.9-5.5 6.7-7.1a6.2 6.2 0 0 1 4-.6l-.6-.6a19.9 19.9 0 0 1-2.4 13.7c-1 1.7-2.4 3.4-4.4 3.9a3.9 3.9 0 0 1-4.3-1.5c-.7-1.5 1-3.9 2.6-2.9l-.4-1a26.3 26.3 0 0 1-6.2 11.9l1.4.2a13.3 13.3 0 0 1 1-15.2l-1.4-.4a9.7 9.7 0 0 1-3.2 9.3l1.5.8c.8-4.5 5.4-7 9.7-7.2a30.1 30.1 0 0 1 8.4.9l8.6 2.1 17.2 4.1c5.1 1.3 10.2 2.4 15.1 3.9a48.4 48.4 0 0 1 13.2 6.2 17.4 17.4 0 0 1 5 5.1 6.2 6.2 0 0 1-.3 6.3c-2.7 4.5-8.4 4.9-13.1 4.6a54.9 54.9 0 0 1-13.8-3 59 59 0 0 1-23.7-15.1 28.5 28.5 0 0 1-2.3-2.6l-1.3 1.2 7.4 8.7 3.6 4.2c1.2 1.4 2.5 2.8 3.6 4.3a3.4 3.4 0 0 1 .9 3.2 3.1 3.1 0 0 1-1.5 2 8.8 8.8 0 0 1-6.3 1.3 15.3 15.3 0 0 1-7.1-3.2 25.8 25.8 0 0 1-5.9-6c-3.7-5-5.9-10.7-7.7-16.6s-3.6-13.1-6.6-19.3a57.7 57.7 0 0 0-10-14.5 84.1 84.1 0 0 0-13.6-11.7c-2.4-1.7-5-3.3-7.5-4.8s-5.8-3.7-8.6-2-2.5 4.4-2.4 6.7a33.1 33.1 0 0 0 1.5 8.8A37.3 37.3 0 0 0 81 73.1a31.1 31.1 0 0 0 3.3 2.9l.6-1.6c-4.2.3-8.4-1.9-12.6-.7s-5.9 3.5-5 7 4.5 4.6 7.4 5.3 4.5.8 6.7 1.2l7.4 1.3 16.6 2.8c.9.2 1.6-1.1.7-1.6a20.9 20.9 0 0 0-16.6-.6A21.4 21.4 0 0 0 78 100.5a23 23 0 0 0-1.8 9H78c-.4-6 3.1-11.7 8.2-14.7s12.6-3.6 18.7-1.8c11.2 3.2 19.9 13.4 20.4 25.2a26.5 26.5 0 0 1-6.4 18.5l1.5.9a38.2 38.2 0 0 0-1.5-30 43.2 43.2 0 0 0-4.7-7.3 1 1 0 0 0-.9-.2l-15.5 6.2c-.5.3-.9 1.1-.4 1.5a51.4 51.4 0 0 0 15.1 8.5l-.2-1.6a27.9 27.9 0 0 1-20.7 1 1 1 0 0 0-1 .4c-2.3 3.5 2.1 6.8 4.9 7.8a12.8 12.8 0 0 1 4.6 2.1 2.8 2.8 0 0 1 .7 3.8A6.2 6.2 0 0 1 97 132c-2 .5-4.1-.1-6.1-.5s-7.9-1.1-9.8 2.5-1.2 6.5 2.3 6.9l-.7-1.5a46.8 46.8 0 0 0-7.3 8.7c-.6 1 .6 1.7 1.4 1.1l7.6-6.1a.9.9 0 0 0-.4-1.5c-2.3-.3-3.3-2.7-3.1-4.9a5.1 5.1 0 0 1 1-2.9 3.8 3.8 0 0 1 3.5-1.1 30.6 30.6 0 0 1 5.8 2 7.5 7.5 0 0 0 5.1-.2 5.3 5.3 0 0 0 2.9-3.3 3.4 3.4 0 0 0-2.4-3.8 25.5 25.5 0 0 1-2.9-1.3 8.3 8.3 0 0 1-2.3-1.9 8.8 8.8 0 0 1-2.3-5.6l-.9.9 13.7.9c1.9.1 4.2.6 6.1-.1a3.4 3.4 0 0 0 2.1-3.5 6.6 6.6 0 0 0-2.5-4 25.6 25.6 0 0 0-4-2.2c-1.2-.6-2.7-1.4-3.1-2.7a2.3 2.3 0 0 1 1.2-2.9 14 14 0 0 1 3.8-1.6 13 13 0 0 0 4.1-2.4c2.6-2.4 3.8-5.8 5-9 2.7-7.2 5.3-14.9 5-22.7a27.6 27.6 0 0 0-1-6.3c-.3-1-.7-1.9-1.1-2.9s-1.1-1.9-1.5-2.8a2 2 0 0 1 .6-2.7 17.9 17.9 0 0 1 2.8-2l6.5-4.6a.9.9 0 0 0-.7-1.6c-3.9.7-7.1 3.5-9.1 6.9s-2.9 8.7-2.4 13.3a66.8 66.8 0 0 0 1.3 7.8c.2.6.3 1.2.5 1.8s.4.9 1.2 1.2l3.5 1.1c4.5 1 9.7.9 13.6-1.8s6.1-7.1 4.9-11.6l-1.5.9c1.4 1.5.8 3.6-.3 5.1a9.3 9.3 0 0 1-5.4 3.7c-4.8 1.1-10.3.2-14.3 3.6s-3.8 8.4-6.3 12.3-8.5 4.5-13 5.4-10.9 4.6-9.6 10.3a1 1 0 0 0 1.7.2 23.1 23.1 0 0 1 22.6-9.6c.5 0 1-.1 1.1-.6a50.1 50.1 0 0 1 11.8-22.7.9.9 0 0 0 0-1.2c-1-1.1-2.9-3-2.2-4.6s1.7-1.7 2.2-.7l.2-1.1c-.3.3.4-.1.3 0h-.1c0-.1-.1-.4-.2-.4s0-.2.1-.1h-.1c-.3-.1 0 .2 0 0l.3.4a.7.7 0 0 1-.4 1 1.9 1.9 0 0 1-2-.6l.3.7a5.2 5.2 0 0 1 2.6-3.8h-.7a4.9 4.9 0 0 1 2.6 2.5l.2-1.1-3.8 4.8a.8.8 0 0 0 0 1.2c3.3 3 9.5.1 9.1-4.4a1 1 0 0 0-.7-.9c-3.2-.5-6.1 3.6-4 6.4a.9.9 0 1 0 1.5-.9c-1-1.4.2-4.1 2.1-3.8l-.7-.8c.3 2.9-3.8 5.2-6.1 3.2v1.2l3.8-4.5a1.1 1.1 0 0 0 .2-1.1 7.3 7.3 0 0 0-2.3-2.6 3.6 3.6 0 0 0-1.7-.7 3.1 3.1 0 0 0-1.5.8 7.6 7.6 0 0 0-2 2.8 4.7 4.7 0 0 0-.4 1.6c0 .7.6 1.1 1.1 1.4s4.7.6 4.7-1.9a2.8 2.8 0 0 0-1.3-2.3 1.9 1.9 0 0 0-2.4.5c-1 1.6 1.3 4.3 2.7 2.6a.8.8 0 0 0 .2-1c-1.2-2.1-4-1.3-5.2.3s.7 5.4 2.3 7.1v-1.2a53.2 53.2 0 0 0-12.2 23.4l1.1-.6a24.7 24.7 0 0 0-20.5 5.8 23 23 0 0 0-4.2 4.6l1.7.2c-.6-2.3.8-4.2 2.5-5.6a16.4 16.4 0 0 1 6.7-2.7c4.9-.9 10.2-1.4 13.1-5.9 1.3-2 1.9-4.4 2.7-6.6s1.7-4.3 3.6-5.7 4.6-1.8 7-2.1 5.1-.3 7.5-1.2c4.1-1.6 9.1-7.1 5.2-11.4-.6-.7-1.7.1-1.4.9 1.1 4.1-1.7 8.3-5.3 10.2s-10.4 1.5-15.1-.3l.7.6c-2-8.3-4.1-18.6 2.9-25.2a10.4 10.4 0 0 1 5.5-2.8l-.7-1.6-5.7 4-2.7 1.9a6.8 6.8 0 0 0-2 1.8c-1.2 1.6-.4 3.5.5 5.1a18.7 18.7 0 0 1 2 5.1c1.9 7.5-.2 15.5-2.6 22.6a57.2 57.2 0 0 1-4.1 10.2 10.4 10.4 0 0 1-3.4 3.5 18.8 18.8 0 0 1-3.9 1.6 8 8 0 0 0-3.5 2.2 4.1 4.1 0 0 0-.9 3.8c.9 3.1 4.4 3.8 6.8 5.2s3 2.2 2.9 3.8-3.4 1.5-4.8 1.4l-15.4-1a.9.9 0 0 0-.9.9 11.5 11.5 0 0 0 5.8 9.3l2.8 1.1c.6.3 1.4.8 1.4 1.6s-1.9 2.4-3 2.6-3.9-.6-5.6-1.3-3.8-1.4-5.8-.9-3.9 3.4-4 5.9 1.4 6 4.4 6.5l-.3-1.5-7.7 6.1 1.4 1a47.2 47.2 0 0 1 7.1-8.4c.6-.5.1-1.4-.6-1.5-2.4-.3-1.2-3.9-.3-5a5.3 5.3 0 0 1 4.4-1.3c2.2.1 4.3.8 6.5 1.1s6.6-.5 8.4-3.2a4.4 4.4 0 0 0 .2-4.3 6.1 6.1 0 0 0-3.3-3c-1.7-.8-3.6-1.1-5.2-2.2s-3-2.6-1.9-4.2l-1 .4a29.9 29.9 0 0 0 22-1.1.9.9 0 0 0-.2-1.7 46.9 46.9 0 0 1-14.3-8l-.4 1.5 15.5-6.3-.9-.2a36.3 36.3 0 0 1 7.8 27.5 32.4 32.4 0 0 1-2 8c-.3.8.9 1.5 1.5.9a28.7 28.7 0 0 0 1.5-35.2c-7.6-10.4-22.4-16.1-34.5-10.5-6.6 3-11.4 9.9-11 17.2.1 1.1 1.8 1.2 1.8 0a20.3 20.3 0 0 1 5.2-13.8 18.6 18.6 0 0 1 13.4-6.2 18.4 18.4 0 0 1 8.6 1.7l.6-1.6-27.1-4.7c-2.9-.5-6.6-.9-8.7-3.1a3.5 3.5 0 0 1-.9-3.6 5.3 5.3 0 0 1 2.9-2.6c4.2-1.6 8.6.9 12.9.6.7 0 1.3-1 .6-1.5a34.8 34.8 0 0 1-12.9-22.4c-.3-2.3-.8-5.6.8-7.5s2.6-1 3.9-.4a31.1 31.1 0 0 1 4 2.2c2.6 1.5 5.1 3.2 7.6 4.9a79.8 79.8 0 0 1 13.4 11.9 54.3 54.3 0 0 1 9.6 14.9c2.8 6.3 4.3 13.1 6.5 19.7a48.4 48.4 0 0 0 8.1 15.8 27.1 27.1 0 0 0 6 5.7 19 19 0 0 0 7.3 3.1 11.8 11.8 0 0 0 6.7-1.1 5.6 5.6 0 0 0 3.2-4.9 6.6 6.6 0 0 0-1.7-3.8l-3.6-4.2-7.2-8.5-3.6-4.2c-.8-.9-2 .4-1.3 1.2a60.2 60.2 0 0 0 38.9 21c5.1.6 11 .8 15-2.9a9.3 9.3 0 0 0 3.1-6.2c.2-2.5-1.1-4.8-2.7-6.6-3.5-3.7-8.3-6.2-13-8.1a116.5 116.5 0 0 0-15-4.4l-18.5-4.4-9.2-2.2a53 53 0 0 0-9-1.7c-4.8-.3-10.1 1.2-12.8 5.5a8.4 8.4 0 0 0-1.2 3.1.9.9 0 0 0 1.5.8 11.3 11.3 0 0 0 3.6-11 .9.9 0 0 0-1.5-.3 14.7 14.7 0 0 0-1.3 17.3.9.9 0 0 0 1.4.1 27.2 27.2 0 0 0 6.6-12.7.8.8 0 0 0-.4-1c-2.1-1.2-4.6.4-5.3 2.5s1.1 4.5 3.3 5.2c5.7 1.8 9.5-5.1 10.8-9.6a22 22 0 0 0 .5-10.2c0-.3-.3-.5-.6-.6-3.6-.9-6.7 1.3-9 3.8A36.4 36.4 0 0 0 114 79a37.6 37.6 0 0 0-3.1 5 14.7 14.7 0 0 0-1.3 10.3 10.1 10.1 0 0 0 5.9 6.7 8 8 0 0 0 7.7-1.7 17.1 17.1 0 0 0 4.7-7.4 35.9 35.9 0 0 0 2.2-9c.3-3 .2-6.4-1.4-9a7.9 7.9 0 0 0-8.5-3.3 17.6 17.6 0 0 0-9.1 5.5 32.6 32.6 0 0 0-8.9 19.8c-.3 3.3 0 7.5 3.7 8.6s6.9-.8 9.6-2.5a26 26 0 0 0 10.8-16.2 22.1 22.1 0 0 0 .5-5.1 10.4 10.4 0 0 0-.8-4.6 3.2 3.2 0 0 0-4.2-1.7 14.6 14.6 0 0 0-4.1 2.9 22 22 0 0 0-6.6 17.5 18.8 18.8 0 0 0 1 4.7.8.8 0 0 0 1.3.5 26.1 26.1 0 0 0 10-14.3c.7-2.5 1.3-5.6.2-8.1s-4.3-3.2-6.7-1.9-3.5 4.7-3.7 7.6-.2 6.9-.2 10.3c0 7.1.1 14.3-1.2 21.3a38.4 38.4 0 0 1-7 16.8 27.4 27.4 0 0 1-13 9.8 17.7 17.7 0 0 1-7.9.9 7 7 0 0 1-4-1.2c-1.2-1-1.2-2.6-1-4a38.6 38.6 0 0 1 2.8-8.3 56.8 56.8 0 0 1 3.9-7.8 69.9 69.9 0 0 1 24.2-25l3.7-2.1c1.1-.5.2-2-.9-1.5z"/></svg>