<svg xmlns="http://www.w3.org/2000/svg" width="256" height="207" viewBox="0 0 256 207"><path fill="#e9c266" d="M113.9 89.5c-2.1-2.9-6.6-2.6-10.1-1.4-14.9 5-25.6 20.6-24.8 36.3a3.3 3.3 0 0 0 .7 2.4c.6.7 2.3 5.9 3.3 6 5.2.6 8.8.2 13-3 2.4-1.8 10.5-9 11.8-11.8 3.9-8.6 4.4-14.3 5.9-23.7"/><path fill="#73471c" d="M147.2 180.2l-10.3.3v-1a9.3 9.3 0 0 0 6.8-7.5c.9-3.8.9-13.5.9-19.6s-.1-11.5-.4-15.6-1.1-6.3-2.9-8.1a10.7 10.7 0 0 0-5.5-2.5v-.9l9.7.2 13-.2c6.8 0 11.9.9 15.6 4a11.3 11.3 0 0 1 4.5 9.4 11.4 11.4 0 0 1-2.9 7.6 20 20 0 0 1-7.2 4.9 18.7 18.7 0 0 1 8 3.5 11.5 11.5 0 0 1 4.8 9.7 14.4 14.4 0 0 1-5.6 11.7 23.1 23.1 0 0 1-14.2 4.4zm19.1-29.5c3.4-2.5 4.8-6 4.8-10.3a12.6 12.6 0 0 0-6.9-11.4 18.8 18.8 0 0 0-7.4-2 31.4 31.4 0 0 0-4.8.6 39.8 39.8 0 0 0-.5 5.5c-.2 3.2-.4 8.4-.4 17.3a44.7 44.7 0 0 0 8.8.7 38.2 38.2 0 0 0 6.4-.4zm3.7 24.4a13.2 13.2 0 0 0 3.5-9.5 11.2 11.2 0 0 0-3.9-8.9 15.8 15.8 0 0 0-9.6-3.6l-8.9-.2v6.6a83.3 83.3 0 0 0 .7 12.2c.6 3.2 1.4 4 2.8 5.1s4.4 1.8 6.8 1.8a14 14 0 0 0 8.6-3.5zm37.9 1.8c4.7 0 8-2.7 10.7-6l.9.6c-2.4 3.4-7.2 9.7-14.3 9.7a15.3 15.3 0 0 1-8.7-2.5c-4.5-3-7.1-8.4-7.1-15.9 0-9.6 6.3-18.3 15.6-18.3 7.6 0 12.2 6.6 13.4 13.6 0 .4.1.7.1 1a.8.8 0 0 1-.4.8l-21.3.5v1.5c0 10 4.8 15 11.1 15zm-11.1-18.1a129.2 129.2 0 0 0 14.5-.7c-.4-5.9-2.8-11.8-7.1-12.1-3.9 1.2-6.8 5.8-7.4 12.8zm48.3 18.1c4.6 0 8-2.7 10.7-6l.8.6c-2.3 3.4-7.1 9.7-14.3 9.7a15.2 15.2 0 0 1-8.6-2.5c-4.6-3-7.2-8.4-7.2-15.9 0-9.6 6.4-18.3 15.7-18.3 7.6 0 12.2 6.6 13.3 13.6a4.4 4.4 0 0 1 .2 1 1 1 0 0 1-.4.8l-21.4.5v1.5c0 10 4.8 15 11.2 15zM234 158.8a129.2 129.2 0 0 0 14.5-.7c-.4-5.9-2.9-11.8-7.1-12.1-3.9 1.2-6.8 5.8-7.4 12.8z"/><path fill="#ac6c29" d="M3.5 158.3c.5 0 .8.5 1.7 2.9s3.4 9 5.9 15.8c2.2-6.1 4.8-12.5 7-18.7a5 5 0 0 1 2 .4c.5.1.6.5.3 1.3-2.6 6.8-5.3 13.2-8 19.6a1.9 1.9 0 0 1-.7 1.1 5 5 0 0 1-2.2.4c-2.6-7.1-5.6-15-8.7-22a7 7 0 0 1 2.7-.8zm20.2 4.8c0-2.4 0-3.8-.1-4.5l2.7-.3c.5 0 .5.3.5 1.9v16c0 2.5.1 3.7.1 4.4l-2.6.2c-.4 0-.6-.1-.6-.6zm13.5-2.5h-6.8c-.5 0-.8-.2-.6-.8s.8-1.2 1-1.5h17.3a2.6 2.6 0 0 1-1.3 2.2h-6.5v15.6c0 2.5.1 3.7.1 4.4l-2.7.2c-.3 0-.5-.1-.5-.6zM52 173.7a73 73 0 0 1-3 6.7c-.1.3-.3.4-.7.4a5.7 5.7 0 0 1-2.2-.4v-.2c2-4.3 7.9-17.8 9.1-20.5l-.5-1 2.5-.4c.4 0 .6.3.8.6l6.1 14.6c1.5 3.3 2.3 5.5 3 6.8v.2a13.1 13.1 0 0 1-2.7.3c-.4 0-.7-.2-1-1s-1.4-3.3-2.6-6.1zm8.2-2.2l-3.7-9c-1.2 2.9-2.3 5.7-3.7 9zm29.6-12.8a10.1 10.1 0 0 1 2.5-.4c.3 0 .5.2.6 1l2.3 13.2c.6 3.7 1.1 6.3 1.4 8a9.9 9.9 0 0 1-2.4.3c-.5 0-.8-.1-.8-.7s-.6-3.6-1.1-6.8l-1.6-10.7c-1.3 3.5-4 10.4-6.4 16.9a1.4 1.4 0 0 1-.9.9l-1.5.2c-1.1-3.3-4.5-12.5-6.4-17.9-.8 5.1-2.3 14-2.9 17.6-.1.4-.2.5-.6.5a5.1 5.1 0 0 1-2.1-.3c.7-3.5 2.4-12.9 4-20.9l-.3-.9a17.3 17.3 0 0 1 2.7-.4c.5.5.9 1.5 1.9 3.9l5.1 13.5c2.3-5.9 5.1-12.7 6.6-16.3zm11 4.4c0-2.4-.1-3.8-.1-4.5l2.6-.3c.5 0 .6.3.6 1.9v16c0 2.5.1 3.7.1 4.4l-2.7.2c-.4 0-.5-.1-.5-.6zm7.9-4.3v-.2l2.9-.3a2 2 0 0 1 .9.6l8.3 11.5a71.7 71.7 0 0 1 4.3 6.4c-.2-3.6-.2-5.6-.2-7.5v-9.8c0-.8.2-1 .7-1l2-.2c-.1 1.6-.2 3.6-.2 6.6v15.7a8 8 0 0 1-2.2.5c-.2 0-.3-.1-.5-.3-2.4-3.1-5.7-7.8-8.8-12.1l-4-6.1c.2 4.2.2 6.1.2 7.9v9.1c0 .9-.2 1-.7 1.1h-1.9c.1-1.4.1-3.4.1-6.4V160z"/><path fill="#010101" d="M112.6 81.6a72 72 0 0 0-33.7 38.8c-1 2.6-2.3 5.8-1.7 8.6s3.9 4 6.7 4.3c11.4 1.2 21.3-7.7 26-17.3 2.9-6 4.1-12.7 4.6-19.3s.2-14.1.4-21.1c0-2.9-.2-6.8 2.2-8.8a3.8 3.8 0 0 1 3.4-.8 3.4 3.4 0 0 1 1.8 3.1 17.2 17.2 0 0 1-1.7 8.3 24.2 24.2 0 0 1-4.8 7.4 22.2 22.2 0 0 1-3.3 2.8l1.3.5a19.5 19.5 0 0 1 1.9-16.3 17.8 17.8 0 0 1 5.8-6.1c.6-.4 1.4-1 2.2-.6a3.1 3.1 0 0 1 1 1.5 12.5 12.5 0 0 1 .3 4.3 23.5 23.5 0 0 1-7 15.8 19.6 19.6 0 0 1-7.2 4.9 7.4 7.4 0 0 1-4.4.4 3.8 3.8 0 0 1-2.4-3.4 13.5 13.5 0 0 1 .1-4.5 26.5 26.5 0 0 1 .9-4.9 29.7 29.7 0 0 1 4.2-8.8 24.5 24.5 0 0 1 6.7-6.9c2.4-1.6 5.6-2.9 8.5-1.9 5.5 2.2 4.2 10.2 3.1 14.7a25.2 25.2 0 0 1-2.8 7.5 9.4 9.4 0 0 1-5.1 4.7c-5.7 1.7-9.3-5-8.6-9.9s2.4-6.5 4.3-9.3 3.9-5.6 6.7-7.1a5.7 5.7 0 0 1 4-.7l-.6-.6a19.9 19.9 0 0 1-2.4 13.7 8.2 8.2 0 0 1-4.4 4 3.8 3.8 0 0 1-4.3-1.6c-.7-1.5 1-3.9 2.6-2.9l-.4-1a26.3 26.3 0 0 1-6.2 11.9l1.4.2a13.3 13.3 0 0 1 1-15.2l-1.4-.4a9.7 9.7 0 0 1-3.2 9.3l1.5.9c.8-4.6 5.4-7 9.7-7.3a26.9 26.9 0 0 1 8.4 1l8.6 2 17.2 4.2c5.1 1.2 10.2 2.3 15.1 3.9a43.1 43.1 0 0 1 13.2 6.2 15.9 15.9 0 0 1 5 5 6.2 6.2 0 0 1-.3 6.3c-2.7 4.5-8.4 5-13.1 4.6a59.5 59.5 0 0 1-13.8-2.9 60.3 60.3 0 0 1-23.7-15.2 28.5 28.5 0 0 1-2.3-2.6l-1.3 1.3 7.4 8.6 3.6 4.2c1.2 1.4 2.5 2.8 3.6 4.3a3.6 3.6 0 0 1 .9 3.3 3.7 3.7 0 0 1-1.5 2 9.3 9.3 0 0 1-6.3 1.3 16.6 16.6 0 0 1-7.1-3.3 24 24 0 0 1-5.9-6c-3.7-4.9-5.9-10.7-7.7-16.5s-3.6-13.2-6.6-19.3a56.5 56.5 0 0 0-10-14.6 89.3 89.3 0 0 0-13.6-11.7c-2.4-1.7-5-3.3-7.5-4.8s-5.8-3.7-8.6-1.9-2.5 4.3-2.4 6.7a32.4 32.4 0 0 0 1.5 8.7A36.7 36.7 0 0 0 81 62.2a31.1 31.1 0 0 0 3.3 2.9l.6-1.5c-4.2.3-8.4-2-12.6-.8s-5.9 3.6-5 7 4.5 4.6 7.4 5.3 4.5.8 6.7 1.2l7.4 1.3 16.6 2.8c.9.2 1.6-1.1.7-1.6A20.8 20.8 0 0 0 78 89.6a23.3 23.3 0 0 0-1.8 9H78c-.4-6 3.1-11.7 8.2-14.7s12.6-3.6 18.7-1.8c11.2 3.3 19.9 13.4 20.4 25.3a26.4 26.4 0 0 1-6.4 18.4l1.5.9a38.2 38.2 0 0 0-1.5-30 43.2 43.2 0 0 0-4.7-7.3 1 1 0 0 0-.9-.2l-15.5 6.3a1 1 0 0 0-.4 1.5 56.4 56.4 0 0 0 15.1 8.5l-.2-1.7a27.9 27.9 0 0 1-20.7 1 1 1 0 0 0-1 .4c-2.3 3.5 2.1 6.8 4.9 7.8a12.8 12.8 0 0 1 4.6 2.1 2.8 2.8 0 0 1 .7 3.8 5.9 5.9 0 0 1-3.8 2.3c-2 .4-4.1-.2-6.1-.5s-7.9-1.2-9.8 2.4-1.2 6.5 2.3 6.9l-.7-1.5a47.4 47.4 0 0 0-7.3 8.8c-.6.9.6 1.6 1.4 1l7.6-6.1a.8.8 0 0 0-.4-1.4c-2.3-.4-3.3-2.8-3.1-5a5.1 5.1 0 0 1 1-2.9 3.8 3.8 0 0 1 3.5-1.1c2 .3 3.9 1.4 5.8 2a6.5 6.5 0 0 0 5.1-.2 5 5 0 0 0 2.9-3.3c.4-1.7-.9-3.1-2.4-3.8a15.1 15.1 0 0 1-2.9-1.3 8.3 8.3 0 0 1-2.3-1.9 8.8 8.8 0 0 1-2.3-5.6l-.9.9 13.7.9c1.9.1 4.2.6 6.1-.1a3.4 3.4 0 0 0 2.1-3.5 6.1 6.1 0 0 0-2.5-3.9 19.4 19.4 0 0 0-4-2.2c-1.2-.6-2.7-1.4-3.1-2.8a2.3 2.3 0 0 1 1.2-2.9 18 18 0 0 1 3.8-1.6 13 13 0 0 0 4.1-2.4c2.6-2.3 3.8-5.8 5-9 2.7-7.2 5.3-14.9 5-22.7a25.9 25.9 0 0 0-1-6.2 24.9 24.9 0 0 0-1.1-2.9c-.5-1-1.1-1.9-1.5-2.9a2 2 0 0 1 .6-2.7 28.3 28.3 0 0 1 2.8-2l6.5-4.6a.9.9 0 0 0-.7-1.6c-3.9.7-7.1 3.5-9.1 6.9s-2.9 8.8-2.4 13.4a65.1 65.1 0 0 0 1.3 7.7c.2.6.3 1.2.5 1.8s.4 1 1.2 1.2a20.4 20.4 0 0 0 3.5 1.1c4.5 1 9.7.9 13.6-1.8s6.1-7.1 4.9-11.6l-1.5.9c1.4 1.6.8 3.6-.3 5.1a9.3 9.3 0 0 1-5.4 3.7c-4.8 1.1-10.3.2-14.3 3.6s-3.8 8.4-6.3 12.3-8.5 4.5-13 5.4-10.9 4.7-9.6 10.3a1 1 0 0 0 1.7.2 23.3 23.3 0 0 1 22.6-9.6.9.9 0 0 0 1.1-.6 50.6 50.6 0 0 1 11.8-22.7.9.9 0 0 0 0-1.2c-1-1.1-2.9-3-2.2-4.6s1.7-1.7 2.2-.7l.2-1.1c-.3.3.4-.1.3.1h-.1s-.1-.4-.2-.4c-.3-.1 0 .2 0 .1s.3.2.3.3a.7.7 0 0 1-.4 1.1 2.2 2.2 0 0 1-2-.7l.3.7a5.2 5.2 0 0 1 2.6-3.8h-.7a4.9 4.9 0 0 1 2.6 2.5l.2-1.1-3.8 4.6a.9.9 0 0 0 0 1.3c3.3 2.9 9.5 0 9.1-4.5a.8.8 0 0 0-.7-.8c-3.2-.6-6.1 3.6-4 6.3a.9.9 0 1 0 1.5-.9c-1-1.3.2-4.1 2.1-3.7l-.7-.9c.3 2.9-3.8 5.2-6.1 3.2v1.3l3.8-4.6a1.1 1.1 0 0 0 .2-1.1 9.6 9.6 0 0 0-2.3-2.6 3.6 3.6 0 0 0-1.7-.7 3.1 3.1 0 0 0-1.5.8 7.2 7.2 0 0 0-2 2.9 4.2 4.2 0 0 0-.4 1.6c0 .6.6 1 1.1 1.3s4.7.6 4.7-1.9a2.8 2.8 0 0 0-1.3-2.3 2 2 0 0 0-2.4.5c-1 1.6 1.3 4.3 2.7 2.7s.4-.8.2-1.1c-1.2-2.1-4-1.3-5.2.3s.7 5.4 2.3 7.1v-1.2A53.2 53.2 0 0 0 112.2 85l1.1-.6a25.1 25.1 0 0 0-20.5 5.8 23 23 0 0 0-4.2 4.6l1.7.2c-.6-2.2.8-4.2 2.5-5.6a16.4 16.4 0 0 1 6.7-2.7c4.9-.8 10.2-1.4 13.1-5.9a29.5 29.5 0 0 0 2.7-6.6c.8-2.1 1.7-4.3 3.6-5.7a15.8 15.8 0 0 1 7-2.1c2.5-.2 5.1-.2 7.5-1.2 4.1-1.6 9.1-7.1 5.2-11.4a.9.9 0 0 0-1.4.9c1.1 4.2-1.7 8.3-5.3 10.3s-10.4 1.4-15.1-.4l.7.7c-2-8.3-4.1-18.7 2.9-25.3a11.1 11.1 0 0 1 5.5-2.8l-.7-1.6-5.7 4-2.7 1.9a6.8 6.8 0 0 0-2 1.8c-1.2 1.7-.4 3.5.5 5.1a18.1 18.1 0 0 1 2 5.2c1.9 7.5-.2 15.4-2.6 22.6-1.2 3.4-2.3 7.1-4.1 10.2a11.4 11.4 0 0 1-3.4 3.5 26.6 26.6 0 0 1-3.9 1.6 7.8 7.8 0 0 0-3.5 2.1 4.1 4.1 0 0 0-.9 3.8c.9 3.1 4.4 3.8 6.8 5.3s3 2.2 2.9 3.7-3.4 1.5-4.8 1.4l-15.4-1a1 1 0 0 0-.9.9 11.5 11.5 0 0 0 5.8 9.3l2.8 1.1c.6.3 1.4.8 1.4 1.6s-1.9 2.4-3 2.7-3.9-.7-5.6-1.4-3.8-1.4-5.8-.8-3.9 3.3-4 5.8 1.4 6 4.4 6.5l-.3-1.5-7.7 6.1 1.4 1.1a43.9 43.9 0 0 1 7.1-8.4.9.9 0 0 0-.6-1.5c-2.4-.4-1.2-4-.3-5.1s2.8-1.3 4.4-1.3 4.3.8 6.5 1.1 6.6-.5 8.4-3.2a4.4 4.4 0 0 0 .2-4.3 6.5 6.5 0 0 0-3.3-3c-1.7-.8-3.6-1.1-5.2-2.2s-3-2.6-1.9-4.2l-1 .4a29.9 29.9 0 0 0 22-1.1.9.9 0 0 0-.2-1.6 49.4 49.4 0 0 1-14.3-8.1l-.4 1.5 15.5-6.3-.9-.2a36.4 36.4 0 0 1 7.8 27.5 32.4 32.4 0 0 1-2 8 .9.9 0 0 0 1.5.9 28.7 28.7 0 0 0 1.5-35.2c-7.6-10.4-22.4-16.1-34.5-10.5-6.6 3-11.4 9.9-11 17.2a.9.9 0 1 0 1.8 0 20.3 20.3 0 0 1 5.2-13.8 18.8 18.8 0 0 1 22-4.4l.6-1.7-27.1-4.6c-2.9-.5-6.6-.9-8.7-3.2a3.3 3.3 0 0 1-.9-3.5 4.7 4.7 0 0 1 2.9-2.6c4.2-1.7 8.6.8 12.9.5.7 0 1.3-1 .6-1.5a35.4 35.4 0 0 1-10.6-13.9 35.6 35.6 0 0 1-2.3-8.5c-.3-2.2-.8-5.6.8-7.5s2.6-1 3.9-.4a31.1 31.1 0 0 1 4 2.2l7.6 4.9a79.8 79.8 0 0 1 13.4 11.9 54.3 54.3 0 0 1 9.6 14.9c2.8 6.3 4.3 13.1 6.5 19.7a47.9 47.9 0 0 0 8.1 15.9 29.1 29.1 0 0 0 6 5.6 17.6 17.6 0 0 0 7.3 3.1 11 11 0 0 0 6.7-1.1 5.5 5.5 0 0 0 3.2-4.9 6.9 6.9 0 0 0-1.7-3.8l-3.6-4.1-7.2-8.5-3.6-4.3c-.8-.9-2 .4-1.3 1.3a60.5 60.5 0 0 0 38.9 20.9c5.1.7 11 .8 15-2.9a9.3 9.3 0 0 0 3.1-6.2 8.8 8.8 0 0 0-2.7-6.5c-3.5-3.8-8.3-6.3-13-8.2a116 116 0 0 0-15-4.3l-18.5-4.5-9.2-2.2a53 53 0 0 0-9-1.7c-4.8-.3-10.1 1.2-12.8 5.5a9.1 9.1 0 0 0-1.2 3.1.9.9 0 0 0 1.5.9 11.4 11.4 0 0 0 3.6-11 .9.9 0 0 0-1.5-.4 14.7 14.7 0 0 0-1.3 17.3 1 1 0 0 0 1.4.2 28.2 28.2 0 0 0 6.6-12.7.8.8 0 0 0-.4-1c-2.1-1.3-4.6.3-5.3 2.4s1.1 4.5 3.3 5.2c5.7 1.8 9.5-5 10.8-9.5a22.1 22.1 0 0 0 .5-10.2.9.9 0 0 0-.6-.7c-3.6-.8-6.7 1.3-9 3.8a31 31 0 0 0-3.5 4.6 31.2 31.2 0 0 0-3.1 4.9c-1.5 3.3-2.3 6.9-1.3 10.3a9.7 9.7 0 0 0 5.9 6.7 8 8 0 0 0 7.7-1.7 16.8 16.8 0 0 0 4.7-7.3 35.6 35.6 0 0 0 2.2-9.1c.3-3 .2-6.3-1.4-9a7.9 7.9 0 0 0-8.5-3.3c-3.6.7-6.6 3-9.1 5.5a32.6 32.6 0 0 0-8.9 19.8c-.3 3.3 0 7.5 3.7 8.7s6.9-.8 9.6-2.6a26 26 0 0 0 10.8-16.2 21.8 21.8 0 0 0 .5-5 10.6 10.6 0 0 0-.8-4.7 3.2 3.2 0 0 0-4.2-1.7 14.6 14.6 0 0 0-4.1 2.9 22.1 22.1 0 0 0-6.6 17.6 18 18 0 0 0 1 4.6.8.8 0 0 0 1.3.5 26.3 26.3 0 0 0 10-14.2c.7-2.6 1.3-5.7.2-8.2s-4.3-3.2-6.7-1.8-3.5 4.7-3.7 7.6-.2 6.8-.2 10.2c0 7.1.1 14.3-1.2 21.3a37.9 37.9 0 0 1-7 16.8c-3.3 4.4-7.8 8.2-13 9.9a19.2 19.2 0 0 1-7.9.8 7 7 0 0 1-4-1.2c-1.2-1-1.2-2.6-1-4a40.6 40.6 0 0 1 2.8-8.3 56.8 56.8 0 0 1 3.9-7.8 69.6 69.6 0 0 1 24.2-24.9 34.7 34.7 0 0 1 3.7-2.1c1.1-.6.2-2.1-.9-1.6z"/></svg>