<svg id="Layer_1" data-name="Layer 1" xmlns="http://www.w3.org/2000/svg" width="439.2" height="285.4" viewBox="0 0 439.2 285.4"><title>logo</title><path d="M192.6,98.5c-3.6-4.9-11.2-4.4-17.1-2.4-25.2,8.5-43.2,34.9-42,61.5a7,7,0,0,0,1.2,4c1.1,1.2,3.9,9.9,5.5,10.1,8.8,1,15,.4,22-5,4.1-3.1,17.9-15.3,20-20,6.6-14.5,7.5-24.2,10-40" fill="#e9c266"/><path d="M248.9,251.9l-17.5.4v-1.6c6.6-2.3,10.2-6.2,11.5-12.8s1.5-22.7,1.5-33-.2-19.4-.7-26.4-1.9-10.7-4.9-13.6-6.9-3.8-9.3-4.3V159c3.3.3,12.1.4,16.5.4s15.3-.4,21.9-.4c11.6,0,20.1,1.6,26.5,6.8s7.5,9.4,7.5,15.9a18.7,18.7,0,0,1-4.9,12.8,33.4,33.4,0,0,1-12.1,8.4,31.4,31.4,0,0,1,13.5,5.8,20,20,0,0,1,8.1,16.5c0,8.5-3.4,14.7-9.5,19.8s-14.9,7.4-24,7.4C267.9,252.4,256.2,251.9,248.9,251.9Zm32.3-50c5.7-4.1,8.1-10.1,8.1-17.2s-3.4-14.8-11.7-19.3a30.4,30.4,0,0,0-12.5-3.5c-2.9.2-5.9.6-8.2,1-.1.9-.5,4.2-.8,9.4s-.7,14.1-.7,29.2a76.7,76.7,0,0,0,14.9,1.2A54.5,54.5,0,0,0,281.2,201.9Zm6.1,41.4c3.7-3.9,6-9.2,6-16.1a18.9,18.9,0,0,0-6.5-15,26.7,26.7,0,0,0-16.4-6.1c-6.1,0-10.3-.2-15-.4v11.2a150.9,150.9,0,0,0,1.2,20.6c1,5.4,2.4,6.8,4.8,8.7s7.3,2.9,11.4,3C278.7,248.7,284,246.7,287.3,243.3Z" fill="#73471c"/><path d="M351.5,246.3c7.8,0,13.6-4.5,18.1-10.2l1.4,1c-4,5.9-12.1,16.4-24.2,16.4a26.4,26.4,0,0,1-14.6-4.1c-7.7-5.2-12.1-14.2-12.1-27,0-16.2,10.8-31,26.5-31,12.9,0,20.6,11.2,22.6,23.2a12.5,12.5,0,0,1,.2,1.5,1.6,1.6,0,0,1-.6,1.4l-36.2.9v2.5C332.6,237.8,340.7,246.3,351.5,246.3Zm-18.7-30.7c7.1.2,18.7-.2,24.4-1.2-.7-9.8-4.8-19.9-11.9-20.3C338.6,196.1,333.7,203.8,332.8,215.6Z" fill="#73471c"/><path d="M414.3,246.3c7.9,0,13.6-4.5,18.1-10.2l1.5,1c-4,5.9-12.1,16.4-24.2,16.4a26.2,26.2,0,0,1-14.6-4.1c-7.7-5.2-12.1-14.2-12.1-27,0-16.2,10.7-31,26.4-31,12.9,0,20.6,11.2,22.6,23.2.1.6.3,1.2.3,1.5a1.6,1.6,0,0,1-.7,1.4l-36.1.9v2.5C395.5,237.8,403.6,246.3,414.3,246.3Zm-18.7-30.7c7.2.2,18.7-.2,24.5-1.2-.7-9.8-4.8-19.9-12-20.3C401.5,196.1,396.5,203.8,395.6,215.6Z" fill="#73471c"/><path d="M6,214.9c.8,0,1.2.8,2.8,4.9s5.7,15.2,9.9,26.7c3.9-10.3,8.2-21.2,12-31.6a9.7,9.7,0,0,1,3.3.6c.9.3,1,.9.5,2.3-4.4,11.3-8.9,22.3-13.5,33.1a4.6,4.6,0,0,1-1.2,1.8,9.6,9.6,0,0,1-3.7.6c-4.5-12-9.5-25.2-14.8-37.1A13.8,13.8,0,0,1,6,214.9Z" fill="#ac6c29"/><path d="M40.1,223c0-4.1-.1-6.5-.2-7.6a31,31,0,0,1,4.5-.5c.9,0,1,.4,1,3.1v27.2c0,4.1.1,6.1.1,7.3a21.4,21.4,0,0,1-4.5.5c-.6,0-.9-.2-.9-1.2Z" fill="#ac6c29"/><path d="M62.9,218.8H51.4c-.9,0-1.3-.4-.9-1.4a10.8,10.8,0,0,1,1.6-2.6c.9.2,2.3.3,9,.3H81.3a4.6,4.6,0,0,1-2.2,3.7H68.2v26.4c0,4.1.1,6.1.1,7.3a21.4,21.4,0,0,1-4.5.5c-.6,0-.9-.2-.9-1.1Z" fill="#ac6c29"/><path d="M87.9,240.9c-2.1,4.8-4,9.2-5,11.3a1.3,1.3,0,0,1-1.3.8,9.8,9.8,0,0,1-3.6-.8v-.3c3.4-7.3,13.3-30.1,15.3-34.7l-.7-1.7a26.9,26.9,0,0,1,4.1-.6,1.4,1.4,0,0,1,1.4,1c2.7,6.3,8,19.1,10.3,24.6s4,9.4,5.1,11.6v.2a15.6,15.6,0,0,1-4.6.7c-.7,0-1.2-.4-1.7-1.8l-4.4-10.3Zm13.8-3.7c-3.2-8.1-5.3-13.2-6.2-15.2-2,4.8-3.9,9.6-6.2,15.2Z" fill="#ac6c29"/><path d="M151.9,215.6a13.7,13.7,0,0,1,4.2-.7c.4,0,.8.3,1,1.6l3.8,22.3c1,6.3,1.8,10.7,2.4,13.6a19.3,19.3,0,0,1-4.1.6,1.2,1.2,0,0,1-1.3-1.2c-.6-3.4-1-6.2-1.8-11.6l-2.7-18.1c-2.2,5.9-6.8,17.5-10.8,28.5a2.2,2.2,0,0,1-1.6,1.6,11.7,11.7,0,0,1-2.6.4c-1.8-5.7-7.5-21.2-10.7-30.4-1.3,8.7-4,23.8-4.9,29.9-.2.6-.5.9-1,.9a8,8,0,0,1-3.7-.6c1.2-6,4.1-21.9,6.8-35.4l-.5-1.4a19.5,19.5,0,0,1,4.7-.7c.7.9,1.5,2.5,3,6.6l8.7,22.7c3.9-9.8,8.6-21.4,11.2-27.5Z" fill="#ac6c29"/><path d="M170.3,223c0-4.1,0-6.5-.1-7.6a28.1,28.1,0,0,1,4.5-.5c.9,0,.9.4.9,3.1v27.2c0,4.1.1,6.1.2,7.3a22.2,22.2,0,0,1-4.5.5c-.7,0-1-.2-1-1.2Z" fill="#ac6c29"/><path d="M183.8,215.6v-.2a39.1,39.1,0,0,1,4.8-.5,2.2,2.2,0,0,1,1.5,1c2.1,2.6,8,11.1,14.1,19.4,3,4.2,5.7,7.8,7.2,10.8-.3-6-.2-9.5-.2-12.6V216.8c0-1.3.4-1.6,1.1-1.6l3.3-.3c-.1,2.6-.1,6.1-.1,11.1v26.5a11.1,11.1,0,0,1-3.8.9c-.4,0-.6-.2-.9-.5-4-5.3-9.7-13.1-14.9-20.4-2.2-3.3-4.3-6.6-6.7-10.4.3,7.1.3,10.3.3,13.3v15.5c0,1.5-.3,1.6-1.2,1.8a15.8,15.8,0,0,1-3.2.3c.1-2.4.2-5.9.2-11V217.7Z" fill="#ac6c29"/><path d="M190.4,85.2a121.8,121.8,0,0,0-57,65.5c-1.7,4.5-4,9.8-2.9,14.7s6.6,6.7,11.3,7.2c19.2,2,36-13,44-29.3,4.9-10.1,6.9-21.5,7.7-32.6s.4-23.8.7-35.7c.1-4.8-.3-11.4,3.8-14.8,1.5-1.2,3.8-2.1,5.7-1.4s3,3.1,3.1,5.2c.4,4.7-1.1,9.8-2.9,14.1a39.8,39.8,0,0,1-8.2,12.5,41.3,41.3,0,0,1-5.5,4.7l2.2.9a33.5,33.5,0,0,1,3.2-27.6,31.1,31.1,0,0,1,9.8-10.3c1-.7,2.4-1.6,3.7-1a4.4,4.4,0,0,1,1.7,2.5,23.2,23.2,0,0,1,.6,7.4,40.6,40.6,0,0,1-11.9,26.7,33.4,33.4,0,0,1-12.2,8.1c-2.3.9-5,1.5-7.4.7s-3.7-3.2-4.1-5.7a28.4,28.4,0,0,1,.1-7.7,44.9,44.9,0,0,1,1.7-8.1,51.4,51.4,0,0,1,7-15,43.4,43.4,0,0,1,11.3-11.7c4.1-2.7,9.5-4.9,14.4-3.1,9.4,3.6,7.1,17.2,5.3,24.8a44.4,44.4,0,0,1-4.8,12.7c-1.9,3.4-4.7,6.7-8.5,7.9-9.8,2.9-15.9-8.5-14.6-16.7.9-5.9,4-11,7.3-15.8s6.5-9.3,11.3-12a9.4,9.4,0,0,1,6.8-1L212,50.2a34.1,34.1,0,0,1-4,23.2c-1.7,2.8-4.2,5.8-7.5,6.6s-6-.1-7.2-2.6,1.6-6.5,4.4-4.9l-.7-1.7a44.3,44.3,0,0,1-10.5,20.1l2.3.3a22,22,0,0,1,1.8-25.6l-2.5-.6a16.2,16.2,0,0,1-5.3,15.6l2.5,1.5c1.3-7.7,9.1-11.9,16.3-12.3,4.8-.3,9.6.6,14.2,1.6l14.7,3.5,29,7c8.6,2.1,17.2,4,25.6,6.6s15.5,5.7,22.2,10.5c3.2,2.3,6.5,5,8.5,8.5a10.5,10.5,0,0,1-.4,10.7c-4.7,7.6-14.3,8.3-22.3,7.7a98.7,98.7,0,0,1-23.3-4.9,101.4,101.4,0,0,1-40-25.6l-4-4.5-2.1,2.2,12.4,14.5,6.1,7.2c2,2.4,4.2,4.7,6.1,7.2s2.2,3.5,1.6,5.5a5.6,5.6,0,0,1-2.6,3.4,15.1,15.1,0,0,1-10.6,2.2c-4.3-.6-8.6-3-12.1-5.5a45.2,45.2,0,0,1-9.9-10.1c-6.3-8.4-10-18.1-13-28s-6.2-22.2-11.1-32.6a99.2,99.2,0,0,0-17-24.6,143.4,143.4,0,0,0-22.9-19.8c-4.2-2.8-8.4-5.6-12.8-8.1s-9.7-6.3-14.4-3.3-4.4,7.3-4.2,11.3a57.5,57.5,0,0,0,2.6,14.8,62,62,0,0,0,15,25.1,51.7,51.7,0,0,0,5.6,4.9l1.1-2.5c-7.2.5-14.2-3.3-21.4-1.3-5.1,1.5-10,6-8.4,11.9s7.6,7.8,12.5,8.9,7.6,1.4,11.3,2.1l12.5,2.1,28,4.8c1.6.3,2.8-1.9,1.2-2.7a35.2,35.2,0,0,0-27.9-1,36.3,36.3,0,0,0-19.5,19.2,38.3,38.3,0,0,0-3,15.3h3c-.7-10.2,5.3-19.8,13.9-24.9S167,83,177.4,86c18.9,5.5,33.6,22.8,34.4,42.7A45.3,45.3,0,0,1,201.1,160l2.5,1.4c6.1-16.3,4.9-35-2.7-50.7A61.3,61.3,0,0,0,193,98.4a1.9,1.9,0,0,0-1.5-.4l-26.1,10.6c-.9.4-1.6,1.7-.7,2.5a85.2,85.2,0,0,0,25.6,14.4l-.4-2.7a47.6,47.6,0,0,1-35,1.6,1.7,1.7,0,0,0-1.7.7c-3.8,5.9,3.5,11.4,8.3,13.1,2.6.9,5.6,1.7,7.7,3.6a4.8,4.8,0,0,1,1.3,6.4c-1.5,2.2-4.1,3.3-6.6,3.9s-6.8-.2-10.2-.9c-5.8-1.1-13.3-1.9-16.7,4.2-2.3,4.2-1.9,10.9,3.9,11.6l-1.1-2.5a79.8,79.8,0,0,0-12.4,14.8c-1,1.5,1.1,2.8,2.4,1.8l12.9-10.3a1.5,1.5,0,0,0-.7-2.5c-3.9-.6-5.5-4.7-5.3-8.3a8.9,8.9,0,0,1,1.8-5,6.4,6.4,0,0,1,5.9-1.9c3.4.5,6.5,2.3,9.8,3.4a10.8,10.8,0,0,0,8.6-.4c2.2-1,4.4-2.9,4.9-5.4s-1.5-5.4-4.1-6.5a36.4,36.4,0,0,1-4.9-2.2,13,13,0,0,1-3.8-3.2,15.3,15.3,0,0,1-4-9.5l-1.5,1.5,23.2,1.5c3.2.2,7.2,1.1,10.3-.2a5.5,5.5,0,0,0,3.6-5.8c-.3-2.7-2.2-5-4.2-6.7s-4.5-2.5-6.9-3.7-4.4-2.4-5.2-4.6.4-3.9,2.1-5,4.2-1.9,6.4-2.7a21.2,21.2,0,0,0,7-4c4.3-4,6.4-9.8,8.4-15.2,4.6-12.2,8.9-25.2,8.4-38.4a46.9,46.9,0,0,0-1.7-10.6,29.2,29.2,0,0,0-1.9-4.9c-.7-1.7-1.7-3.2-2.4-4.8s-.6-3.2.9-4.6,3.2-2.3,4.8-3.4l11-7.7A1.5,1.5,0,0,0,212,7.3c-6.7,1.2-12.1,5.9-15.4,11.6s-4.8,14.8-4.1,22.6a115.8,115.8,0,0,0,2.3,13.1c.2,1,.5,2,.7,3.1s.8,1.6,2.1,2a52.6,52.6,0,0,0,6,1.8c7.6,1.7,16.3,1.6,22.9-3.1s10.3-11.9,8.3-19.5l-2.5,1.5c2.4,2.6,1.4,6-.5,8.7a16.4,16.4,0,0,1-9.2,6.2c-8.1,1.9-17.4.4-24.2,6.1S192,75.6,187.9,82.2s-14.4,7.5-22.1,9.1-18.3,7.8-16.1,17.4a1.5,1.5,0,0,0,2.7.3,39.4,39.4,0,0,1,38.3-16.2,1.6,1.6,0,0,0,1.9-1.1,84.7,84.7,0,0,1,19.9-38.2,1.7,1.7,0,0,0,0-2.2c-1.7-1.7-4.9-4.9-3.8-7.7.5-1.2,3-2.9,3.9-1.2l.2-1.9c-.5.6.8-.1.6.1s-.2,0-.2-.1a3.3,3.3,0,0,0-.3-.6v0c-.4-.2.1.3,0,.1a3.4,3.4,0,0,1,.6.6,1.3,1.3,0,0,1-.7,1.8,3.7,3.7,0,0,1-3.4-1.1l.5,1.1a8.4,8.4,0,0,1,4.3-6.3H213a8.8,8.8,0,0,1,4.5,4.2l.2-1.8-6.4,7.7a1.4,1.4,0,0,0,0,2.1c5.6,5,16.1.2,15.4-7.5a1.7,1.7,0,0,0-1.1-1.5c-5.5-.9-10.5,6.2-6.9,10.8a1.5,1.5,0,1,0,2.6-1.5c-1.8-2.3.3-6.9,3.5-6.4l-1.1-1.4c.4,4.9-6.5,8.8-10.3,5.4v2.1l6.4-7.7a1.4,1.4,0,0,0,.2-1.8,10.3,10.3,0,0,0-3.9-4.4,5.5,5.5,0,0,0-2.7-1.2c-.9,0-1.9.9-2.6,1.4a11.7,11.7,0,0,0-3.4,4.8,8.2,8.2,0,0,0-.6,2.7,2.8,2.8,0,0,0,1.8,2.3c3,1.8,8,.9,7.9-3.3a4.5,4.5,0,0,0-2.1-3.8,3.1,3.1,0,0,0-4.1.9c-1.6,2.6,2.1,7.2,4.6,4.4a1.7,1.7,0,0,0,.3-1.9c-1.9-3.5-6.8-2.1-8.7.7s1.1,9,3.9,12V51.3a89.5,89.5,0,0,0-20.7,39.6l1.8-1a42.6,42.6,0,0,0-34.7,9.8,43.4,43.4,0,0,0-7,7.8l2.8.4c-.9-3.8,1.4-7.2,4.3-9.5s7.3-3.8,11.4-4.5c8.1-1.5,17.1-2.4,22.1-10.1,2.1-3.4,3.2-7.3,4.6-11.1s2.9-7.3,6.1-9.6,7.7-3.2,11.8-3.6,8.6-.4,12.6-2c6.9-2.7,15.5-12,8.9-19.3a1.5,1.5,0,0,0-2.5,1.5c1.8,7-2.9,14.1-8.9,17.4-7.9,4.2-17.6,2.3-25.5-.6l1.1,1.1c-3.3-14.1-6.9-31.6,5-42.7a17,17,0,0,1,9.2-4.7l-1.2-2.8-9.7,6.8-4.4,3.2a11.2,11.2,0,0,0-3.5,3c-2,2.8-.6,6,.9,8.6a34.9,34.9,0,0,1,3.4,8.8c3.2,12.7-.3,26.1-4.4,38.2-1.9,5.8-3.8,12-7,17.2a16.2,16.2,0,0,1-5.6,6,55.2,55.2,0,0,1-6.7,2.7,14.8,14.8,0,0,0-6,3.6,7.3,7.3,0,0,0-1.4,6.4c1.6,5.2,7.5,6.5,11.6,8.9,2,1.1,4.9,3.7,4.7,6.3s-5.7,2.6-7.9,2.4l-26.2-1.7a1.5,1.5,0,0,0-1.5,1.5,19.4,19.4,0,0,0,9.9,15.7c1.5.8,3.1,1.2,4.6,1.9s2.4,1.3,2.4,2.6-3.1,4.1-5.1,4.6-6.5-1.1-9.3-2.3-6.6-2.3-10-1.4-6.5,5.6-6.7,9.8,2.4,10.2,7.5,11l-.6-2.5L127.7,179l2.3,1.8a74.1,74.1,0,0,1,12-14.2c1-1,.1-2.4-1.1-2.6-4-.5-2-6.6-.4-8.5s4.8-2.2,7.4-2.1,7.3,1.3,11,1.8,11.2-.9,14.1-5.5a7.2,7.2,0,0,0,.5-7.2,10.5,10.5,0,0,0-5.6-5c-2.9-1.4-6.2-2-8.8-3.7s-5.1-4.4-3.3-7.2l-1.7.7a50.7,50.7,0,0,0,37.3-1.9c1.3-.6.8-2.4-.3-2.8A80.3,80.3,0,0,1,166.9,109l-.7,2.5,26.1-10.6-1.4-.3a60.9,60.9,0,0,1,9.8,60,1.5,1.5,0,0,0,2.5,1.5c14.4-16.5,15.4-41.9,2.5-59.5S168,75.4,147.4,84.8c-11.1,5.1-19.3,16.7-18.5,29.2.1,1.9,3,1.9,3,0a34.8,34.8,0,0,1,8.7-23.4,31.7,31.7,0,0,1,22.7-10.5,30.3,30.3,0,0,1,14.5,3l1.1-2.8L133,72.4c-4.9-.8-11-1.5-14.7-5.3a5.9,5.9,0,0,1-1.5-6,8.4,8.4,0,0,1,5-4.4c7-2.7,14.5,1.5,21.8,1,1.1-.1,2.1-1.7,1-2.6a57.4,57.4,0,0,1-18-23.6,58.2,58.2,0,0,1-3.9-14.3c-.5-3.8-1.4-9.4,1.3-12.7s4.4-1.6,6.6-.7a56.3,56.3,0,0,1,6.8,3.8c4.4,2.6,8.7,5.4,12.9,8.3A134.9,134.9,0,0,1,172.9,36a93.1,93.1,0,0,1,16.3,25.2c4.7,10.7,7.3,22.2,10.9,33.2s7.3,18.9,13.7,26.9a46.1,46.1,0,0,0,10.2,9.5,29.8,29.8,0,0,0,12.4,5.3,19.2,19.2,0,0,0,11.3-1.9c3-1.6,5.6-4.6,5.4-8.2a11.5,11.5,0,0,0-3-6.5l-5.9-7L231.9,98.1l-6.1-7.2c-1.2-1.4-3.3.7-2.1,2.2a103.7,103.7,0,0,0,41.2,29.2,99.8,99.8,0,0,0,24.6,6.2c8.5,1.1,18.5,1.3,25.2-4.9a16.1,16.1,0,0,0,5.4-10.5c.3-4.2-1.9-8.1-4.7-11.1-5.9-6.3-14-10.6-22-13.7s-16.8-5.4-25.3-7.4l-31.3-7.5-15.4-3.7a89.7,89.7,0,0,0-15.3-2.9c-8.2-.6-17.2,2-21.7,9.3a13.7,13.7,0,0,0-2,5.2,1.5,1.5,0,0,0,2.5,1.4A19,19,0,0,0,191,64.2a1.5,1.5,0,0,0-2.5-.7,25,25,0,0,0-2.2,29.3,1.5,1.5,0,0,0,2.3.3,48.1,48.1,0,0,0,11.3-21.5,1.6,1.6,0,0,0-.7-1.7c-3.6-2.1-7.8.6-9,4.2s1.9,7.6,5.5,8.7c9.8,3,16.2-8.5,18.4-16.1a37.4,37.4,0,0,0,.8-17.3,1.4,1.4,0,0,0-1-1c-6.1-1.5-11.4,2.2-15.3,6.4a87,87,0,0,0-6,7.6,56.3,56.3,0,0,0-5.1,8.5c-2.6,5.4-3.9,11.5-2.2,17.4s4.9,9.5,9.9,11.2a13.3,13.3,0,0,0,13.1-2.8c3.9-3.2,6.3-7.9,8-12.4a62.7,62.7,0,0,0,3.6-15.4c.5-5,.4-10.7-2.3-15.1s-8.8-6.8-14.4-5.7-11.2,5.1-15.3,9.4a54.8,54.8,0,0,0-15.1,33.4c-.5,5.6,0,12.7,6.3,14.7s11.7-1.4,16.1-4.4a43.3,43.3,0,0,0,18.4-27.4,48,48,0,0,0,.8-8.5,19.6,19.6,0,0,0-1.3-7.9,5.5,5.5,0,0,0-7.2-2.8,23.6,23.6,0,0,0-6.8,4.9,36.8,36.8,0,0,0-11.3,29.7,33.9,33.9,0,0,0,1.7,7.8,1.5,1.5,0,0,0,2.2.9,44.1,44.1,0,0,0,16.9-24.1c1.1-4.3,2.2-9.6.3-13.8s-7.2-5.4-11.3-3.1-5.9,7.9-6.2,12.8-.3,11.6-.3,17.3c0,12.1,0,24.2-2.1,36.1-1.9,10.2-5.4,20-11.7,28.4s-13.3,13.7-22.2,16.6a31.6,31.6,0,0,1-13.3,1.5c-2.2-.2-4.9-.6-6.7-2.1s-2.1-4.4-1.7-6.8c.9-4.8,2.9-9.5,4.7-14a108.4,108.4,0,0,1,6.6-13.2,119.5,119.5,0,0,1,40.9-42.1c2.1-1.3,4.2-2.5,6.4-3.6s.1-3.5-1.6-2.6Z" fill="#010101"/></svg>