<svg id="Layer_1" data-name="Layer 1" xmlns="http://www.w3.org/2000/svg" width="256" height="209.5" viewBox="0 0 256 209.5"><path d="M113.9,64c-2.1-2.9-6.6-2.5-10.1-1.4C88.9,67.6,78.2,83.2,79,99a3.6,3.6,0,0,0,.7,2.4c.6.7,2.3,5.8,3.3,5.9,5.2.6,8.8.3,13-2.9,2.4-1.9,10.5-9.1,11.8-11.8,3.9-8.7,4.4-14.4,5.9-23.7" fill="#e9c266"/><path d="M147.2,154.8l-10.3.2v-.9c3.9-1.4,6-3.7,6.8-7.6s.9-13.4.9-19.6-.1-11.4-.4-15.5-1.1-6.4-2.9-8.1a10.7,10.7,0,0,0-5.5-2.5v-1c1.9.2,7.1.3,9.7.3l13-.3c6.8,0,11.9,1,15.6,4a11.3,11.3,0,0,1,4.5,9.5,10.9,10.9,0,0,1-2.9,7.5,20.3,20.3,0,0,1-7.2,5,17.4,17.4,0,0,1,8,3.4,11.9,11.9,0,0,1,4.8,9.8,14.4,14.4,0,0,1-5.6,11.7,23.7,23.7,0,0,1-14.2,4.4Zm19.1-29.6c3.4-2.4,4.8-6,4.8-10.2a12.6,12.6,0,0,0-6.9-11.4,17.2,17.2,0,0,0-7.4-2,32.2,32.2,0,0,0-4.8.5,42.2,42.2,0,0,0-.5,5.6c-.2,3.1-.4,8.3-.4,17.3a53.9,53.9,0,0,0,8.8.7A36.9,36.9,0,0,0,166.3,125.2Zm3.7,24.5a13.3,13.3,0,0,0,3.5-9.5,11,11,0,0,0-3.9-8.9,15.2,15.2,0,0,0-9.6-3.6c-3.6,0-6.2-.1-8.9-.3v6.7a84.4,84.4,0,0,0,.7,12.2c.6,3.1,1.4,4,2.8,5.1s4.4,1.7,6.8,1.8A14,14,0,0,0,170,149.7Z" fill="#73471c"/><path d="M207.9,151.5c4.7,0,8-2.7,10.7-6.1l.9.6c-2.4,3.5-7.2,9.7-14.3,9.7a16,16,0,0,1-8.7-2.4c-4.5-3.1-7.1-8.4-7.1-16,0-9.6,6.3-18.3,15.6-18.3,7.6,0,12.2,6.6,13.4,13.7,0,.4.1.7.1.9s-.1.7-.4.8l-21.3.6v1.5C196.8,146.4,201.6,151.5,207.9,151.5Zm-11.1-18.2a94.5,94.5,0,0,0,14.5-.7c-.4-5.8-2.8-11.8-7.1-12S197.4,126.3,196.8,133.3Z" fill="#73471c"/><path d="M245.1,151.5c4.6,0,8-2.7,10.7-6.1l.8.6c-2.3,3.5-7.1,9.7-14.3,9.7a15.9,15.9,0,0,1-8.6-2.4c-4.6-3.1-7.2-8.4-7.2-16,0-9.6,6.4-18.3,15.7-18.3,7.6,0,12.2,6.6,13.3,13.7a5.1,5.1,0,0,1,.2.9.9.9,0,0,1-.4.8l-21.4.6v1.5C233.9,146.4,238.7,151.5,245.1,151.5ZM234,133.3a94.5,94.5,0,0,0,14.5-.7c-.4-5.8-2.9-11.8-7.1-12S234.6,126.3,234,133.3Z" fill="#73471c"/><path d="M3.5,132.9c.5,0,.8.5,1.7,2.9s3.4,9,5.9,15.8c2.2-6.1,4.8-12.6,7-18.7a5.3,5.3,0,0,1,2,.3c.5.2.6.5.3,1.4-2.6,6.7-5.3,13.2-8,19.6a2.3,2.3,0,0,1-.7,1.1,8.1,8.1,0,0,1-2.2.3c-2.6-7.1-5.6-14.9-8.7-22A9,9,0,0,1,3.5,132.9Z" fill="#ac6c29"/><path d="M23.7,137.7a44,44,0,0,0-.1-4.5l2.7-.3c.5,0,.5.2.5,1.8v16.1c0,2.4.1,3.6.1,4.3a10.9,10.9,0,0,1-2.6.3c-.4,0-.6-.1-.6-.7Z" fill="#ac6c29"/><path d="M37.2,135.2H30.4c-.5,0-.8-.2-.6-.8a11.9,11.9,0,0,1,1-1.6c.5.2,1.4.2,5.3.2h12a2.6,2.6,0,0,1-1.3,2.2H40.3v15.6c0,2.4.1,3.6.1,4.3a11.8,11.8,0,0,1-2.7.3c-.3,0-.5-.1-.5-.6Z" fill="#ac6c29"/><path d="M52,148.3c-1.2,2.8-2.3,5.4-3,6.7s-.3.4-.7.4a8.5,8.5,0,0,1-2.2-.4v-.2c2-4.4,7.9-17.8,9.1-20.6l-.5-.9,2.5-.4c.4,0,.6.2.8.6,1.6,3.7,4.7,11.3,6.1,14.6s2.3,5.5,3,6.8h0a8.8,8.8,0,0,1-2.7.4c-.4,0-.7-.2-1-1.1s-1.4-3.2-2.6-6Zm8.2-2.2-3.7-9c-1.2,2.8-2.3,5.7-3.7,9Z" fill="#ac6c29"/><path d="M89.8,133.3a10.1,10.1,0,0,1,2.5-.4c.3,0,.5.2.6.9L95.2,147c.6,3.8,1.1,6.4,1.4,8.1a9.9,9.9,0,0,1-2.4.3c-.5,0-.8-.2-.8-.7s-.6-3.6-1.1-6.9l-1.6-10.6c-1.3,3.4-4,10.3-6.4,16.8a1.5,1.5,0,0,1-.9,1l-1.5.2c-1.1-3.4-4.5-12.6-6.4-18-.8,5.1-2.3,14.1-2.9,17.7-.1.4-.2.5-.6.5a5.1,5.1,0,0,1-2.1-.3c.7-3.6,2.4-13,4-21l-.3-.8a10.3,10.3,0,0,1,2.7-.4c.5.5.9,1.5,1.9,3.9l5.1,13.4c2.3-5.8,5.1-12.7,6.6-16.3Z" fill="#ac6c29"/><path d="M100.8,137.7c0-2.4-.1-3.9-.1-4.5l2.6-.3c.5,0,.6.2.6,1.8v16.1c0,2.4.1,3.6.1,4.3a11.8,11.8,0,0,1-2.7.3c-.4,0-.5-.1-.5-.7Z" fill="#ac6c29"/><path d="M108.7,133.3h0l2.9-.3a1.4,1.4,0,0,1,.9.6c1.2,1.5,4.7,6.5,8.3,11.4a71.4,71.4,0,0,1,4.3,6.5c-.2-3.6-.2-5.7-.2-7.5V134c0-.8.2-.9.7-1h2c-.1,1.5-.2,3.6-.2,6.5v15.7a5.5,5.5,0,0,1-2.2.5l-.5-.2-8.8-12.1c-1.3-2-2.6-3.9-4-6.2.2,4.2.2,6.1.2,7.9v9.2c0,.8-.2,1-.7,1.1h-1.9c.1-1.4.1-3.5.1-6.5V134.5Z" fill="#ac6c29"/><path d="M112.6,56.2A71.8,71.8,0,0,0,86.8,79.4a73,73,0,0,0-7.9,15.5c-1,2.7-2.3,5.8-1.7,8.7s3.9,4,6.7,4.3c11.4,1.1,21.3-7.7,26-17.4,2.9-5.9,4.1-12.7,4.6-19.2s.2-14.1.4-21.2c0-2.8-.2-6.7,2.2-8.7a3.8,3.8,0,0,1,3.4-.8c1.2.4,1.7,1.8,1.8,3a17.6,17.6,0,0,1-1.7,8.4,23.7,23.7,0,0,1-4.8,7.3,22.8,22.8,0,0,1-3.3,2.9l1.3.5a19.5,19.5,0,0,1,1.9-16.3,17,17,0,0,1,5.8-6.1c.6-.4,1.4-1,2.2-.6s.8.9,1,1.5a12.3,12.3,0,0,1,.3,4.3,23.7,23.7,0,0,1-7,15.8,20.7,20.7,0,0,1-7.2,4.8,6.7,6.7,0,0,1-4.4.4,3.8,3.8,0,0,1-2.4-3.3,14.2,14.2,0,0,1,.1-4.6,27,27,0,0,1,.9-4.8,28.6,28.6,0,0,1,4.2-8.8,24.8,24.8,0,0,1,6.7-7c2.4-1.6,5.6-2.9,8.5-1.8,5.5,2.1,4.2,10.2,3.1,14.6a26.8,26.8,0,0,1-2.8,7.6,9.2,9.2,0,0,1-5.1,4.6c-5.7,1.7-9.3-5-8.6-9.9.5-3.4,2.4-6.5,4.3-9.3s3.9-5.5,6.7-7.1a6.2,6.2,0,0,1,4-.6l-.6-.6A20,20,0,0,1,123,49.2c-1,1.7-2.4,3.4-4.4,3.9a3.8,3.8,0,0,1-4.3-1.6c-.7-1.4,1-3.8,2.6-2.9l-.4-1a26.1,26.1,0,0,1-6.2,12h1.4a13.1,13.1,0,0,1,1-15.1l-1.4-.4a9.7,9.7,0,0,1-3.2,9.3l1.5.8c.8-4.5,5.4-7,9.7-7.2a30.1,30.1,0,0,1,8.4.9l8.6,2.1,17.2,4.1c5.1,1.2,10.2,2.4,15.1,3.9a48.4,48.4,0,0,1,13.2,6.2,17.4,17.4,0,0,1,5,5.1,6.2,6.2,0,0,1-.3,6.3c-2.7,4.5-8.4,4.9-13.1,4.5a54.8,54.8,0,0,1-13.8-2.9,60.1,60.1,0,0,1-23.7-15.1c-.8-.9-1.6-1.7-2.3-2.6l-1.3,1.2,7.4,8.6,3.6,4.3c1.2,1.4,2.5,2.8,3.6,4.3a3.4,3.4,0,0,1,.9,3.2,3.4,3.4,0,0,1-1.5,2,9.3,9.3,0,0,1-6.3,1.3,16.6,16.6,0,0,1-7.1-3.3,25.4,25.4,0,0,1-5.9-5.9c-3.7-5-5.9-10.7-7.7-16.6s-3.6-13.1-6.6-19.3a57.7,57.7,0,0,0-10-14.5A84.1,84.1,0,0,0,89.1,13.2c-2.4-1.7-5-3.3-7.5-4.8s-5.8-3.8-8.6-2-2.5,4.4-2.4,6.7a31.7,31.7,0,0,0,1.5,8.7A36,36,0,0,0,81,36.7a22.8,22.8,0,0,0,3.3,2.9l.6-1.5c-4.2.3-8.4-1.9-12.6-.7s-5.9,3.5-5,7,4.5,4.6,7.4,5.3,4.5.8,6.7,1.2l7.4,1.2L105.4,55c.9.2,1.6-1.1.7-1.6a20.9,20.9,0,0,0-16.6-.6A21.1,21.1,0,0,0,78,64.2a23,23,0,0,0-1.8,9H78c-.4-6,3.1-11.7,8.2-14.8s12.6-3.5,18.7-1.8c11.2,3.3,19.9,13.5,20.4,25.3a26.5,26.5,0,0,1-6.4,18.5l1.5.9a38.2,38.2,0,0,0-1.5-30,39.6,39.6,0,0,0-4.7-7.3,1,1,0,0,0-.9-.2L97.8,70a1,1,0,0,0-.4,1.5A51.4,51.4,0,0,0,112.5,80l-.2-1.6a28.4,28.4,0,0,1-20.7,1,.8.8,0,0,0-1,.4c-2.3,3.4,2.1,6.7,4.9,7.7a17.5,17.5,0,0,1,4.6,2.1,2.8,2.8,0,0,1,.7,3.8A5.9,5.9,0,0,1,97,95.7c-2,.5-4.1-.1-6.1-.5s-7.9-1.1-9.8,2.5-1.2,6.4,2.3,6.9l-.7-1.5a46.8,46.8,0,0,0-7.3,8.7c-.6.9.6,1.7,1.4,1.1l7.6-6.1a.9.9,0,0,0-.4-1.5c-2.3-.4-3.3-2.7-3.1-4.9a5.1,5.1,0,0,1,1-2.9,3.6,3.6,0,0,1,3.5-1.1c2,.2,3.9,1.3,5.8,1.9a6.5,6.5,0,0,0,5.1-.2,4.9,4.9,0,0,0,2.9-3.2c.4-1.8-.9-3.2-2.4-3.9a25.2,25.2,0,0,1-2.9-1.2,10.6,10.6,0,0,1-2.3-1.9,9.3,9.3,0,0,1-2.3-5.6l-.9.9,13.7.8c1.9.2,4.2.7,6.1-.1a3.2,3.2,0,0,0,2.1-3.4,6.6,6.6,0,0,0-2.5-4,19.4,19.4,0,0,0-4-2.2c-1.2-.6-2.7-1.4-3.1-2.7a2.5,2.5,0,0,1,1.2-3,25.4,25.4,0,0,1,3.8-1.6,11.1,11.1,0,0,0,4.1-2.3c2.6-2.4,3.8-5.8,5-9,2.7-7.2,5.3-14.9,5-22.7a26.7,26.7,0,0,0-1-6.3c-.3-1-.7-1.9-1.1-2.9s-1.1-1.9-1.5-2.9a1.9,1.9,0,0,1,.6-2.6,29.2,29.2,0,0,1,2.8-2.1l6.5-4.5a.9.9,0,0,0-.7-1.6c-3.9.7-7.1,3.5-9.1,6.8a21.5,21.5,0,0,0-2.4,13.4,70.5,70.5,0,0,0,1.3,7.8c.2.6.3,1.2.5,1.8s.4.9,1.2,1.2a20.1,20.1,0,0,0,3.5,1c4.5,1,9.7,1,13.6-1.8s6.1-7,4.9-11.5l-1.5.8c1.4,1.6.8,3.6-.3,5.2a9.3,9.3,0,0,1-5.4,3.7c-4.8,1.1-10.3.2-14.3,3.6s-3.8,8.4-6.3,12.3-8.5,4.4-13,5.4-10.9,4.6-9.6,10.3a1,1,0,0,0,1.7.2,23.4,23.4,0,0,1,22.6-9.7.9.9,0,0,0,1.1-.6,50.3,50.3,0,0,1,11.8-22.6,1.1,1.1,0,0,0,0-1.3c-1-1-2.9-2.9-2.2-4.5s1.7-1.7,2.2-.8l.2-1c-.3.3.4-.2.3,0a.1.1,0,0,1-.1-.1s-.1-.3-.2-.3,0-.2.1-.1h-.1c-.3-.2,0,.1,0,0s.3.3.3.4a.7.7,0,0,1-.4,1,1.9,1.9,0,0,1-2-.6l.3.6a5,5,0,0,1,2.6-3.7H126a4.3,4.3,0,0,1,2.6,2.5l.2-1.1L125,33.2a.8.8,0,0,0,0,1.2c3.3,3,9.5.1,9.1-4.4a1,1,0,0,0-.7-.9c-3.2-.5-6.1,3.6-4,6.4a.9.9,0,0,0,1.5-.9c-1-1.4.2-4.1,2.1-3.8l-.7-.8c.3,2.8-3.8,5.2-6.1,3.2v1.2l3.8-4.5a1.1,1.1,0,0,0,.2-1.1,7.3,7.3,0,0,0-2.3-2.6,3.8,3.8,0,0,0-1.7-.8,4.6,4.6,0,0,0-1.5.9,6.3,6.3,0,0,0-2,2.8,4.7,4.7,0,0,0-.4,1.6c0,.7.6,1.1,1.1,1.4s4.7.5,4.7-1.9a2.6,2.6,0,0,0-1.3-2.3,1.9,1.9,0,0,0-2.4.5c-1,1.6,1.3,4.3,2.7,2.6a.9.9,0,0,0,.2-1.1c-1.2-2.1-4-1.2-5.2.4s.7,5.4,2.3,7.1V36.1a54.1,54.1,0,0,0-12.2,23.5l1.1-.7a25.4,25.4,0,0,0-20.5,5.8,26.7,26.7,0,0,0-4.2,4.7l1.7.2c-.6-2.3.8-4.3,2.5-5.6a14,14,0,0,1,6.7-2.7c4.9-.9,10.2-1.4,13.1-5.9,1.3-2,1.9-4.4,2.7-6.6s1.7-4.4,3.6-5.7a13.6,13.6,0,0,1,7-2.1c2.5-.3,5.1-.3,7.5-1.2,4.1-1.6,9.1-7.1,5.2-11.4a.8.8,0,0,0-1.4.9c1.1,4.1-1.7,8.3-5.3,10.2s-10.4,1.4-15.1-.3l.7.6c-2-8.3-4.1-18.6,2.9-25.2a10.4,10.4,0,0,1,5.5-2.8l-.7-1.6-5.7,4L116.8,16a11.6,11.6,0,0,0-2,1.8c-1.2,1.7-.4,3.6.5,5.2a18.7,18.7,0,0,1,2,5.1c1.9,7.5-.2,15.5-2.6,22.6-1.2,3.4-2.3,7.1-4.1,10.2a10.4,10.4,0,0,1-3.4,3.5,26.6,26.6,0,0,1-3.9,1.6,8,8,0,0,0-3.5,2.2,4.1,4.1,0,0,0-.9,3.8c.9,3,4.4,3.8,6.8,5.2s3,2.2,2.9,3.8-3.4,1.5-4.8,1.4l-15.4-1c-.5-.1-.9.4-.9.9a11.2,11.2,0,0,0,5.8,9.2c.9.5,1.9.8,2.8,1.2s1.4.7,1.4,1.5-1.9,2.4-3,2.7-3.9-.6-5.6-1.3a9,9,0,0,0-5.8-.9c-2.6.7-3.9,3.3-4,5.8s1.4,6,4.4,6.5l-.3-1.5-7.7,6.1,1.4,1.1a43.9,43.9,0,0,1,7.1-8.4.9.9,0,0,0-.6-1.5c-2.4-.3-1.2-3.9-.3-5a5.3,5.3,0,0,1,4.4-1.3c2.2.1,4.3.8,6.5,1.1s6.6-.6,8.4-3.3a4.4,4.4,0,0,0,.2-4.3,5.9,5.9,0,0,0-3.3-2.9c-1.7-.8-3.6-1.2-5.2-2.2s-3-2.6-1.9-4.2l-1,.4a29.9,29.9,0,0,0,22-1.2c.8-.3.5-1.4-.2-1.6a49.1,49.1,0,0,1-14.3-8l-.4,1.4,15.5-6.2-.9-.2a36.1,36.1,0,0,1,7.8,27.4,32,32,0,0,1-2,8.1c-.3.8.9,1.5,1.5.9a28.8,28.8,0,0,0,1.5-35.3C114.1,56,99.3,50.3,87.2,55.9c-6.6,3.1-11.4,9.9-11,17.3.1,1.1,1.8,1.2,1.8,0a20.1,20.1,0,0,1,5.2-13.8,18.7,18.7,0,0,1,13.4-6.3,18.5,18.5,0,0,1,8.6,1.8l.6-1.6L78.7,48.6c-2.9-.5-6.6-.9-8.7-3.2a3.3,3.3,0,0,1-.9-3.5A5.3,5.3,0,0,1,72,39.3c4.2-1.6,8.6.9,12.9.6.7-.1,1.3-1,.6-1.5a35.7,35.7,0,0,1-10.6-14A34.9,34.9,0,0,1,72.6,16c-.3-2.3-.8-5.6.8-7.5s2.6-1,3.9-.5a31.8,31.8,0,0,1,4,2.3,89,89,0,0,1,7.6,4.9,79.8,79.8,0,0,1,13.4,11.9,55.3,55.3,0,0,1,9.6,14.8c2.8,6.4,4.3,13.2,6.5,19.7a47.9,47.9,0,0,0,8.1,15.9,24.5,24.5,0,0,0,6,5.6,17.8,17.8,0,0,0,7.3,3.2,11.1,11.1,0,0,0,6.7-1.2,5.4,5.4,0,0,0,3.2-4.8,6.6,6.6,0,0,0-1.7-3.8l-3.6-4.2-7.2-8.5-3.6-4.2c-.8-.9-2,.3-1.3,1.2a60.3,60.3,0,0,0,24.4,17.3,57.3,57.3,0,0,0,14.5,3.7c5.1.6,11,.7,15-2.9a9.3,9.3,0,0,0,3.1-6.2c.2-2.5-1.1-4.8-2.7-6.6-3.5-3.7-8.3-6.3-13-8.1a116.5,116.5,0,0,0-15-4.4l-18.5-4.4L130.9,47a53,53,0,0,0-9-1.7c-4.8-.3-10.1,1.1-12.8,5.5a8.4,8.4,0,0,0-1.2,3.1.9.9,0,0,0,1.5.8,11.4,11.4,0,0,0,3.6-11c-.2-.6-1.1-.9-1.5-.4a14.8,14.8,0,0,0-1.3,17.3.9.9,0,0,0,1.4.2,27.7,27.7,0,0,0,6.6-12.7.8.8,0,0,0-.4-1c-2.1-1.2-4.6.4-5.3,2.5s1.1,4.5,3.3,5.2c5.7,1.7,9.5-5.1,10.8-9.6a22,22,0,0,0,.5-10.2c0-.3-.3-.5-.6-.6-3.6-.9-6.7,1.3-9,3.8a36.4,36.4,0,0,0-3.5,4.5,32.1,32.1,0,0,0-3.1,5A14.7,14.7,0,0,0,109.6,58a9.8,9.8,0,0,0,5.9,6.6,7.7,7.7,0,0,0,7.7-1.6,17.1,17.1,0,0,0,4.7-7.4,35.6,35.6,0,0,0,2.2-9.1c.3-2.9.2-6.3-1.4-8.9a8.1,8.1,0,0,0-8.5-3.4c-3.6.7-6.6,3-9.1,5.6a32.6,32.6,0,0,0-8.9,19.8c-.3,3.3,0,7.4,3.7,8.6s6.9-.8,9.6-2.5a25.9,25.9,0,0,0,10.8-16.3,20.7,20.7,0,0,0,.5-5,11.1,11.1,0,0,0-.8-4.7,3.2,3.2,0,0,0-4.2-1.6,12.8,12.8,0,0,0-4.1,2.9,22,22,0,0,0-6.6,17.5,18.8,18.8,0,0,0,1,4.7.8.8,0,0,0,1.3.5,26.5,26.5,0,0,0,10-14.3c.7-2.5,1.3-5.6.2-8.1s-4.3-3.2-6.7-1.9-3.5,4.7-3.7,7.6-.2,6.8-.2,10.3c0,7.1.1,14.2-1.2,21.3a38.9,38.9,0,0,1-7,16.8,27.4,27.4,0,0,1-13,9.8,17.7,17.7,0,0,1-7.9.9,7.8,7.8,0,0,1-4-1.2c-1.2-1-1.2-2.6-1-4a41.4,41.4,0,0,1,2.8-8.4,71.2,71.2,0,0,1,28.1-32.7l3.7-2.1c1.1-.5.2-2.1-.9-1.5Z" fill="#010101"/></svg>