<svg id="Layer_1" data-name="Layer 1" xmlns="http://www.w3.org/2000/svg" width="64" height="64" viewBox="0 0 64 64"><path d="M27,34.2c-1.1-1.4-3.2-1.2-4.9-.7A17.9,17.9,0,0,0,10.3,50.9a1.4,1.4,0,0,0,.3,1.1c.3.3,1.1,2.8,1.6,2.9,2.4.2,4.2.1,6.2-1.4s5-4.4,5.6-5.7c1.9-4.1,2.1-6.8,2.8-11.3" fill="#e9c266"/><path d="M26.3,30.4A34.5,34.5,0,0,0,14,41.5a39.8,39.8,0,0,0-3.8,7.4c-.4,1.3-1.1,2.8-.8,4.2s1.9,1.9,3.2,2c5.4.6,10.2-3.7,12.4-8.3a23.9,23.9,0,0,0,2.2-9.2c.2-3.3.1-6.7.2-10.1,0-1.3-.1-3.2,1.1-4.1a1.6,1.6,0,0,1,1.6-.4c.6.2.8.9.9,1.4a9,9,0,0,1-.9,4A11.6,11.6,0,0,1,27.8,32l-1.5,1.3.6.3a9.3,9.3,0,0,1,.9-7.8,8.9,8.9,0,0,1,2.8-3c.2-.1.6-.4,1-.2s.4.4.5.7a4.5,4.5,0,0,1,.1,2,11.3,11.3,0,0,1-3.3,7.6,9.8,9.8,0,0,1-3.4,2.3,3.9,3.9,0,0,1-2.1.2,1.8,1.8,0,0,1-1.2-1.6,16.2,16.2,0,0,1,0-2.2,18.9,18.9,0,0,1,.5-2.3,13.5,13.5,0,0,1,2-4.2,10.1,10.1,0,0,1,3.2-3.3,4.5,4.5,0,0,1,4-.9c2.7,1,2,4.9,1.5,7a12,12,0,0,1-1.3,3.6,4.7,4.7,0,0,1-2.4,2.2c-2.8.8-4.5-2.4-4.1-4.7a10.8,10.8,0,0,1,2-4.5,11.2,11.2,0,0,1,3.2-3.3,2.2,2.2,0,0,1,1.9-.3l-.3-.3a9.8,9.8,0,0,1-1.1,6.5A4.3,4.3,0,0,1,29.2,29a2,2,0,0,1-2.1-.8c-.3-.7.5-1.8,1.3-1.4l-.2-.4a12.6,12.6,0,0,1-3,5.7h.7a6.2,6.2,0,0,1,.5-7.2l-.7-.2a4.8,4.8,0,0,1-1.5,4.4l.7.5c.4-2.2,2.6-3.4,4.6-3.5a11,11,0,0,1,4,.5l4.1.9,8.2,2c2.5.6,4.9,1.1,7.3,1.9a23.4,23.4,0,0,1,6.2,2.9,7.8,7.8,0,0,1,2.4,2.4,2.7,2.7,0,0,1-.1,3c-1.3,2.2-4,2.4-6.3,2.2a26,26,0,0,1-6.6-1.4,28.4,28.4,0,0,1-11.3-7.2l-1.1-1.2-.6.6,3.5,4.1,1.7,2,1.8,2a1.9,1.9,0,0,1,.4,1.6,2.3,2.3,0,0,1-.7,1,5.2,5.2,0,0,1-3,.6A8.9,8.9,0,0,1,36,42.4a14.8,14.8,0,0,1-2.8-2.8,27.1,27.1,0,0,1-3.7-7.9,63.4,63.4,0,0,0-3.1-9.3,29.5,29.5,0,0,0-4.8-6.9,49.3,49.3,0,0,0-6.5-5.6L11.5,7.6C10.3,7,8.8,5.8,7.4,6.7S6.2,8.8,6.3,9.9A15.4,15.4,0,0,0,7,14.1a18.3,18.3,0,0,0,4.2,7.1l1.6,1.3.3-.7c-2,.2-4-.9-6-.3s-2.9,1.7-2.4,3.3S6.9,27,8.2,27.3l3.2.6,3.5.6,8,1.4c.4.1.8-.6.3-.8a9.9,9.9,0,0,0-7.9-.3,10.2,10.2,0,0,0-5.5,5.5A8.9,8.9,0,0,0,9,38.6h.8a8,8,0,0,1,3.9-7.1,11.1,11.1,0,0,1,8.9-.8,13.3,13.3,0,0,1,9.8,12,12.4,12.4,0,0,1-3.1,8.8l.7.5a18.5,18.5,0,0,0-.7-14.4,19.8,19.8,0,0,0-2.2-3.4.4.4,0,0,0-.5-.1l-7.3,3c-.3.1-.5.4-.2.7a24.2,24.2,0,0,0,7.2,4V41a13.1,13.1,0,0,1-9.9.5c-.2-.1-.4.1-.5.2-1.1,1.7,1,3.2,2.4,3.7a8.1,8.1,0,0,1,2.1,1,1.3,1.3,0,0,1,.4,1.8,2.9,2.9,0,0,1-1.8,1.1,7,7,0,0,1-2.9-.2c-1.7-.3-3.8-.6-4.7,1.1s-.6,3.1,1.1,3.3l-.3-.7A23.6,23.6,0,0,0,8.5,57c-.2.4.4.8.7.5l3.7-2.9c.2-.2.1-.7-.2-.7a2.1,2.1,0,0,1-1.5-2.4,2.1,2.1,0,0,1,.5-1.3,1.7,1.7,0,0,1,1.6-.6,13.3,13.3,0,0,1,2.8,1,3.9,3.9,0,0,0,2.4-.1,2.2,2.2,0,0,0,1.4-1.6,1.6,1.6,0,0,0-1.1-1.8l-1.4-.6-1.1-.9a4,4,0,0,1-1.1-2.7l-.4.4,6.5.4a7.1,7.1,0,0,0,2.9,0,1.6,1.6,0,0,0,1-1.7A2.8,2.8,0,0,0,24,40.2a5.9,5.9,0,0,0-1.9-1.1c-.6-.3-1.3-.7-1.5-1.3a1.2,1.2,0,0,1,.6-1.4,7.1,7.1,0,0,1,1.8-.8,5.6,5.6,0,0,0,2-1.1,11.4,11.4,0,0,0,2.4-4.3c1.3-3.4,2.5-7.1,2.3-10.8a14.5,14.5,0,0,0-.4-3L28.7,15c-.2-.5-.5-.9-.7-1.4a.9.9,0,0,1,.3-1.2,7.1,7.1,0,0,1,1.4-1l3.1-2.2c.4-.3.1-.8-.4-.8a6.6,6.6,0,0,0-4.3,3.3,10.3,10.3,0,0,0-1.2,6.4,22,22,0,0,0,.7,3.7,2.9,2.9,0,0,0,.2.9.6.6,0,0,0,.5.5l1.7.5a8.2,8.2,0,0,0,6.5-.8,5.5,5.5,0,0,0,2.4-5.5l-.8.4a1.7,1.7,0,0,1-.1,2.4A4.3,4.3,0,0,1,35.4,22c-2.3.5-4.9.1-6.8,1.7s-1.8,4-3,5.9-4,2.1-6.2,2.6-5.2,2.2-4.6,4.9c.1.3.6.3.8.1a11.1,11.1,0,0,1,10.8-4.6c.2,0,.5-.1.5-.3a24.5,24.5,0,0,1,5.7-10.8.6.6,0,0,0,0-.6c-.5-.5-1.4-1.4-1.1-2.2s.8-.8,1.1-.4v-.5c-.2.2.2,0,.1.1h0c.1.3,0,.5-.2.5a.7.7,0,0,1-.9-.3v.3A2.4,2.4,0,0,1,33,16.6h-.3A2.5,2.5,0,0,1,34,17.8v-.5l-1.8,2.2a.5.5,0,0,0,0,.6c1.6,1.4,4.6,0,4.4-2.2l-.3-.4a2.1,2.1,0,0,0-2,3.1.7.7,0,0,0,.6.1.5.5,0,0,0,.2-.6,1.1,1.1,0,0,1,.9-1.8l-.3-.4a1.9,1.9,0,0,1-2.9,1.6v.6l1.8-2.2c.2-.2.2-.3.1-.5a3.5,3.5,0,0,0-1.1-1.3,1.9,1.9,0,0,0-.8-.3,1.3,1.3,0,0,0-.7.4,3.2,3.2,0,0,0-1,1.3,2.2,2.2,0,0,0-.1.8c-.1.3.2.5.5.7s2.2.2,2.2-1a1.4,1.4,0,0,0-.6-1.1.8.8,0,0,0-1.1.3c-.5.7.5,2,1.3,1.2a.4.4,0,0,0,0-.5c-.5-1-1.9-.6-2.4.2s.3,2.6,1.1,3.4v-.6a24.8,24.8,0,0,0-5.9,11.2l.5-.3a12.1,12.1,0,0,0-9.8,2.7,13,13,0,0,0-1.9,2.2h.7a2.6,2.6,0,0,1,1.3-2.6,6.1,6.1,0,0,1,3.2-1.3c2.3-.4,4.8-.7,6.2-2.8a17.9,17.9,0,0,0,1.3-3.2,5.5,5.5,0,0,1,1.7-2.7,6.7,6.7,0,0,1,3.4-1,10.7,10.7,0,0,0,3.5-.6c2-.7,4.4-3.4,2.5-5.4-.2-.3-.8,0-.7.4.6,2-.8,4-2.5,4.9s-4.9.7-7.2-.2l.3.3c-.9-3.9-1.9-8.9,1.4-12a4.9,4.9,0,0,1,2.6-1.3l-.3-.8-2.7,1.9-1.3.9a4.1,4.1,0,0,0-1,.9c-.5.7-.1,1.6.3,2.4a18.6,18.6,0,0,1,1,2.5c.9,3.5-.1,7.3-1.3,10.7a21,21,0,0,1-2,4.9,4.4,4.4,0,0,1-1.6,1.7,9.6,9.6,0,0,1-1.8.7,5,5,0,0,0-1.7,1.1,2,2,0,0,0-.4,1.8c.4,1.4,2.1,1.8,3.2,2.5a2.4,2.4,0,0,1,1.4,1.8c-.1,1-1.6.7-2.3.7l-7.3-.5a.5.5,0,0,0-.5.4,5.5,5.5,0,0,0,2.8,4.4l1.3.6c.3.1.7.3.7.7s-.9,1.2-1.4,1.3a4.4,4.4,0,0,1-2.7-.7,5.3,5.3,0,0,0-2.8-.4,3.1,3.1,0,0,0-1.9,2.8c0,1.4.7,2.9,2.1,3.1V54L8.6,56.9l.7.5a21.2,21.2,0,0,1,3.4-4,.4.4,0,0,0-.3-.7c-1.2-.1-.6-1.9-.2-2.4a2.4,2.4,0,0,1,2.1-.6,28.7,28.7,0,0,1,3.1.5,4.2,4.2,0,0,0,4-1.5,2.3,2.3,0,0,0,.2-2.1A3.6,3.6,0,0,0,20,45.2c-.8-.4-1.8-.6-2.5-1s-1.5-1.3-.9-2.1l-.5.2a14.1,14.1,0,0,0,10.5-.5c.4-.2.2-.7-.1-.8a23.8,23.8,0,0,1-6.8-3.8l-.2.7,7.4-3h-.4a18.1,18.1,0,0,1,3.7,13.1,16.4,16.4,0,0,1-1,3.8c-.1.4.5.8.7.4a13.7,13.7,0,0,0,.8-16.8c-3.7-4.9-10.7-7.6-16.5-5-3.1,1.5-5.5,4.8-5.2,8.3a.4.4,0,0,0,.8,0A10,10,0,0,1,12.3,32a8.7,8.7,0,0,1,6.4-3,8.4,8.4,0,0,1,4.1.8l.3-.7-13-2.3C8.7,26.6,7,26.4,6,25.3a1.4,1.4,0,0,1-.4-1.7A2.1,2.1,0,0,1,7,22.4c1.9-.8,4.1.4,6.1.3.3-.1.6-.5.3-.8a16.6,16.6,0,0,1-5.1-6.6,19.9,19.9,0,0,1-1.1-4c-.1-1.1-.4-2.7.4-3.6a1.4,1.4,0,0,1,1.8-.2l2,1L15,10.9a37.8,37.8,0,0,1,6.4,5.6A26,26,0,0,1,26,23.7c1.3,3,2,6.2,3.1,9.3a22.6,22.6,0,0,0,3.8,7.6,14.8,14.8,0,0,0,2.9,2.7,9.1,9.1,0,0,0,3.5,1.5,5.1,5.1,0,0,0,3.2-.5A2.5,2.5,0,0,0,44,41.9a3.3,3.3,0,0,0-.8-1.8c-.6-.6-1.1-1.3-1.7-2l-3.4-4-1.8-2c-.3-.5-.9.1-.6.6a29.3,29.3,0,0,0,11.7,8.2,27,27,0,0,0,6.9,1.8c2.4.3,5.2.3,7.1-1.4a4,4,0,0,0,.2-6.1,16.7,16.7,0,0,0-6.2-3.9,54.6,54.6,0,0,0-7.2-2.1l-8.8-2.1-4.3-1a23.6,23.6,0,0,0-4.3-.9c-2.3-.1-4.9.6-6.2,2.7a5.8,5.8,0,0,0-.5,1.4c-.1.5.3.7.7.4a5.3,5.3,0,0,0,1.7-5.2.4.4,0,0,0-.7-.2,6.9,6.9,0,0,0-.6,8.3.4.4,0,0,0,.6.1A13.3,13.3,0,0,0,29,26.6c0-.2,0-.4-.2-.5a1.8,1.8,0,0,0-2.5,1.2,2.1,2.1,0,0,0,1.5,2.5c2.8.8,4.6-2.4,5.2-4.6a10.1,10.1,0,0,0,.2-4.9q0-.2-.3-.3c-1.7-.4-3.2.7-4.3,1.9A16.6,16.6,0,0,0,27,24a15.8,15.8,0,0,0-1.5,2.4,6.9,6.9,0,0,0-.6,4.9,4.7,4.7,0,0,0,2.8,3.2,3.8,3.8,0,0,0,3.7-.8,8,8,0,0,0,2.2-3.5,13.4,13.4,0,0,0,1-4.4,6.1,6.1,0,0,0-.6-4.2A3.9,3.9,0,0,0,29.9,20a8.4,8.4,0,0,0-4.3,2.6,15.8,15.8,0,0,0-4.3,9.5c-.1,1.5,0,3.5,1.8,4.1s3.3-.4,4.6-1.2a13.2,13.2,0,0,0,5.2-7.8,19.4,19.4,0,0,0,.2-2.4,4.3,4.3,0,0,0-.4-2.2,1.5,1.5,0,0,0-2-.8,6.7,6.7,0,0,0-1.9,1.4,10.2,10.2,0,0,0-3.2,8.4,8.7,8.7,0,0,0,.5,2.2.4.4,0,0,0,.6.2,11.8,11.8,0,0,0,4.7-6.8,5.3,5.3,0,0,0,.1-3.9,2.2,2.2,0,0,0-3.1-.9,4.5,4.5,0,0,0-1.8,3.7c-.1,1.6-.1,3.2-.1,4.9a56.5,56.5,0,0,1-.6,10.1,18.6,18.6,0,0,1-3.3,8.1,13.5,13.5,0,0,1-6.2,4.6,9.7,9.7,0,0,1-3.8.5,4.2,4.2,0,0,1-1.9-.6,2,2,0,0,1-.5-1.9,19,19,0,0,1,1.4-4,25.3,25.3,0,0,1,1.8-3.7A33.1,33.1,0,0,1,25,32.2l1.8-1c.4-.3,0-1-.5-.8Z" fill="#010101"/></svg>