<svg id="Layer_1" data-name="Layer 1" xmlns="http://www.w3.org/2000/svg" width="1972.9" height="82.2" viewBox="0 0 1972.9 82.2"><title>scribbles</title><path d="M.9,28.6C116.3,76.3,242.8,56.9,363.6,50.4q101.4-5.4,203-.9c67.4,2.9,134.1,11,201.3,17.6,33,3.2,66.2,5,99.2,1.6,29.9-3.1,59.2-10,88.1-17.9,62.2-17,123.1-36.8,188.4-36.2,66.8.6,132.3,16.1,198.4,24.3a1020.7,1020.7,0,0,0,200,4.7c66.8-5,133.1-17.4,200.2-16.3,63.5,1,125.9,23.6,189.5,19.1a179.6,179.6,0,0,0,42.4-8.1c1.8-.6,1-3.5-.8-2.9-61.8,20-125.3-1-187.3-8.3-66-7.7-132.2,2-197.8,9.2s-133.3,9.3-200.1,4.2-130.9-19.7-196.8-26.2c-32.8-3.2-65.9-4-98.7.2-29.2,3.7-57.8,10.9-86.1,18.7C944.7,50.4,884.4,68.8,819.6,67.4,752.6,66,686,54,619.2,49.4s-134-6-201-4.2C355,46.9,292,53.1,228.8,55.9,167.4,58.5,105,57.1,45.4,40.8a402.3,402.3,0,0,1-43.7-15C0,25-.8,27.9.9,28.6Z"/><path d="M1970.5,5.8c-114.4,49.3-241.4,31.2-362,25.3-131.5-6.3-263.3-4.3-395-4s-264-.4-395.9,1.3c-63.4.9-126,5.3-188.5,16.1-65,11.3-129.4,25.5-195.2,31C302,86.4,169.7,71.1,39.1,53.1L-9.4,46.4c-1.9-.3-2.7,2.6-.8,2.9C119.5,67.5,250.1,85.9,381.4,81.5c64.8-2.1,128.3-11.7,192-23.7,65.7-12.4,130.8-22.7,197.7-25.2S902.8,31,968.5,30.8l201.6-.5c133-.4,266.2-2.6,399.2,2.2,120,4.3,246.6,25.9,363.8-9.7A368.9,368.9,0,0,0,1972,8.4c1.8-.7.3-3.3-1.5-2.6Z"/><path d="M-57.8,72.8c134.6-21.7,270.2-37.3,406.4-44a2808.3,2808.3,0,0,1,404,9.3c67,6.5,133.9,14.4,201.2,19s137.1,4.9,205.8,3.5c135.1-2.8,271.2-5.1,405.5-21.6,127.8-15.6,258.2-52.1,387.4-28.9a385.9,385.9,0,0,1,46.6,11.3,1.5,1.5,0,1,0,.8-2.9h0c-124.1-37.6-253.7-9.4-378.5,9.7C1485.5,49,1347.9,52.5,1210.7,56.3c-68.1,1.9-136.3,3.3-204.3.6S870.6,47.1,802.9,40.2c-135.8-14-271.3-20.8-407.8-16.3S125.2,42.1-8.5,62.1l-50.1,7.8C-60.5,70.2-59.7,73.1-57.8,72.8Z"/></svg>